<svg width="141" height="48" viewBox="0 0 auto 100%" fill="none" xmlns="http://www.w3.org/2000/svg">
<rect width="140.4" height="48" rx="4" transform="matrix(-1 0 0 1 140.4 0)" fill="url(#paint0_linear_aas)"/>
<path d="M30.5849 23.0411C30.5849 19.6027 33.4687 17.939 33.5796 17.8281C31.9159 15.4988 29.4757 15.1661 28.5884 15.0552C26.481 14.8334 24.3736 16.2753 23.3754 16.2753C22.2662 16.2753 20.6025 15.0552 18.8278 15.0552C16.4986 15.0552 14.3912 16.3862 13.1711 18.4936C10.731 22.7084 12.5056 28.9196 14.8349 32.358C16.0549 34.0218 17.3859 35.9073 19.1606 35.7964C20.9352 35.6855 21.6007 34.6873 23.7081 34.6873C25.8155 34.6873 26.3701 35.7964 28.2556 35.7964C30.1412 35.7964 31.3613 34.1327 32.4704 32.4689C33.8014 30.5834 34.356 28.6978 34.356 28.5869C34.2451 28.476 30.5849 27.145 30.5849 23.0411Z" fill="white"/>
<path d="M27.1475 12.8365C28.0348 11.6165 28.7003 10.0636 28.5894 8.3999C27.2584 8.51082 25.4837 9.28723 24.5964 10.5073C23.7091 11.5055 22.9327 13.1693 23.1545 14.7221C24.5964 14.833 26.1492 13.9457 27.1475 12.8365Z" fill="white"/>
<path d="M55.2804 37.5892H52.9608L51.6956 33.5827H47.2674L46.1077 37.5892H43.8936L48.3218 23.9883H51.063L55.2804 37.5892ZM51.2739 31.8958L50.1141 28.3111C50.0087 27.9948 49.7978 27.0459 49.3761 25.7807C49.2707 26.3078 49.0598 27.2567 48.7435 28.3111L47.5837 31.8958H51.2739Z" fill="white"/>
<path d="M66.5642 32.6326C66.5642 34.3196 66.1425 35.5848 65.1936 36.6391C64.3501 37.4826 63.4012 37.9043 62.136 37.9043C60.8708 37.9043 59.9219 37.4826 59.3947 36.5337V41.6999H57.1806V31.1566C57.1806 30.1022 57.1806 29.0479 57.0752 27.8881H58.973L59.0784 29.4696C59.8165 28.3098 60.8708 27.6772 62.3469 27.6772C63.5066 27.6772 64.4555 28.099 65.1936 29.0479C66.1425 29.8914 66.5642 31.0511 66.5642 32.6326ZM64.3501 32.6326C64.3501 31.6837 64.1392 30.8403 63.7175 30.3131C63.2958 29.6805 62.6632 29.3642 61.8197 29.3642C61.2925 29.3642 60.7654 29.575 60.3436 29.8913C59.9219 30.2076 59.6056 30.7348 59.5002 31.262C59.3947 31.5783 59.3947 31.7892 59.3947 31.8946V33.5815C59.3947 34.3196 59.6056 34.8467 60.0273 35.3739C60.4491 35.9011 61.0817 36.1119 61.7143 36.1119C62.5577 36.1119 63.1903 35.7956 63.6121 35.163C64.1392 34.5304 64.3501 33.687 64.3501 32.6326Z" fill="white"/>
<path d="M77.8445 32.6326C77.8445 34.3196 77.4228 35.5848 76.4738 36.6391C75.6304 37.4826 74.6815 37.9043 73.4163 37.9043C72.1511 37.9043 71.2022 37.4826 70.675 36.5337V41.6999H68.4609V31.1566C68.4609 30.1022 68.4609 29.0479 68.3555 27.8881H70.2533L70.3587 29.4696C71.0967 28.3098 72.1511 27.6772 73.6271 27.6772C74.7869 27.6772 75.7358 28.099 76.4738 29.0479C77.4228 29.8914 77.8445 31.0511 77.8445 32.6326ZM75.6304 32.6326C75.6304 31.6837 75.4195 30.8403 74.9978 30.3131C74.576 29.6805 73.9434 29.3642 73.1 29.3642C72.5728 29.3642 72.0456 29.575 71.6239 29.8913C71.2022 30.2076 70.8859 30.7348 70.7804 31.262C70.675 31.5783 70.675 31.7892 70.675 31.8946V33.5815C70.675 34.3196 70.8859 34.8467 71.3076 35.3739C71.7293 35.9011 72.3619 36.1119 72.9945 36.1119C73.838 36.1119 74.4706 35.7956 74.8923 35.163C75.4195 34.5304 75.6304 33.687 75.6304 32.6326Z" fill="white"/>
<path d="M90.4962 33.7926C90.4962 34.9524 90.0745 35.9013 89.3365 36.6393C88.493 37.4828 87.2278 37.7991 85.6463 37.7991C84.1702 37.7991 83.0105 37.4828 82.167 36.9556L82.6942 35.1632C83.6431 35.6904 84.6974 36.0067 85.8572 36.0067C86.7006 36.0067 87.3332 35.7958 87.755 35.4795C88.1767 35.0578 88.3876 34.6361 88.3876 34.0035C88.3876 33.4763 88.1767 32.9491 87.8604 32.6328C87.4387 32.2111 86.8061 31.8948 85.9626 31.5785C83.5376 30.735 82.3779 29.3644 82.3779 27.6774C82.3779 26.5177 82.7996 25.6742 83.6431 24.9362C84.4865 24.1981 85.5409 23.8818 87.0169 23.8818C88.2821 23.8818 89.231 24.0927 90.0745 24.5144L89.5473 26.3068C88.8093 25.8851 87.9658 25.6742 86.9115 25.6742C86.1735 25.6742 85.5409 25.8851 85.1191 26.2014C84.8028 26.5177 84.592 26.9394 84.592 27.4666C84.592 27.9937 84.8028 28.4155 85.2246 28.8372C85.5409 29.1535 86.2789 29.4698 87.2278 29.8915C88.3876 30.3133 89.231 30.9459 89.8636 31.5785C90.1799 32.1057 90.4962 32.8437 90.4962 33.7926Z" fill="white"/>
<path d="M97.6669 29.4696H95.242V34.2141C95.242 35.3739 95.6637 36.0065 96.5072 36.0065C96.9289 36.0065 97.2452 36.0065 97.4561 35.901L97.5615 37.588C97.1398 37.7988 96.6126 37.7988 95.8746 37.7988C95.0311 37.7988 94.2931 37.588 93.8713 37.0608C93.3442 36.5336 93.1333 35.6902 93.1333 34.425V29.4696H91.6572V27.7826H93.1333V25.9903L95.242 25.3577V27.7826H97.6669V29.4696Z" fill="white"/>
<path d="M108.526 32.6331C108.526 34.1091 108.104 35.3744 107.261 36.3233C106.312 37.2722 105.152 37.7993 103.676 37.7993C102.2 37.7993 101.04 37.2722 100.197 36.3233C99.3534 35.3744 98.9316 34.2146 98.9316 32.7385C98.9316 31.2624 99.3534 29.9972 100.302 29.0483C101.146 28.0994 102.411 27.5723 103.887 27.5723C105.363 27.5723 106.523 28.0994 107.366 29.0483C108.104 29.9972 108.526 31.157 108.526 32.6331ZM106.207 32.7385C106.207 31.7896 105.996 31.0516 105.574 30.419C105.152 29.6809 104.414 29.2592 103.571 29.2592C102.727 29.2592 101.989 29.6809 101.567 30.419C101.146 31.0516 100.935 31.895 100.935 32.7385C100.935 33.6874 101.146 34.4254 101.567 35.0581C101.989 35.7961 102.727 36.2178 103.571 36.2178C104.414 36.2178 105.047 35.7961 105.574 35.0581C105.996 34.4254 106.207 33.582 106.207 32.7385Z" fill="white"/>
<path d="M115.59 29.6809C115.379 29.6809 115.168 29.5755 114.852 29.5755C114.114 29.5755 113.481 29.8918 113.06 30.4189C112.743 30.9461 112.532 31.5787 112.532 32.3167V37.483H110.318V30.7352C110.318 29.5755 110.318 28.6266 110.213 27.6777H112.111L112.216 29.5755H112.322C112.532 28.9429 112.954 28.4157 113.376 27.994C113.903 27.6777 114.43 27.4668 114.957 27.4668C115.168 27.4668 115.379 27.4668 115.485 27.4668V29.6809H115.59Z" fill="white"/>
<path d="M125.289 32.2113C125.289 32.6331 125.289 32.9494 125.184 33.1602H118.647C118.647 34.1091 118.963 34.8472 119.596 35.3744C120.123 35.7961 120.861 36.1124 121.704 36.1124C122.653 36.1124 123.602 36.007 124.34 35.6907L124.656 37.1667C123.708 37.5885 122.653 37.7993 121.388 37.7993C119.912 37.7993 118.647 37.3776 117.803 36.4287C116.96 35.5852 116.538 34.32 116.538 32.8439C116.538 31.3679 116.96 30.1027 117.698 29.1538C118.541 28.0994 119.701 27.5723 121.177 27.5723C122.548 27.5723 123.708 28.0994 124.34 29.1538C125.078 29.9972 125.289 31.0516 125.289 32.2113ZM123.286 31.6842C123.286 31.0516 123.18 30.5244 122.864 29.9972C122.442 29.3646 121.915 29.0483 121.177 29.0483C120.439 29.0483 119.912 29.3646 119.49 29.8918C119.174 30.3135 118.963 30.9461 118.858 31.5787H123.286V31.6842Z" fill="white"/>
<path opacity="0.7" d="M50.9922 13.4305C50.9922 14.6506 50.6595 15.6488 49.8831 16.3143C49.2176 16.8689 48.2193 17.2016 46.8883 17.2016C46.2229 17.2016 45.6683 17.2016 45.2246 17.0907V10.2139C45.7792 10.103 46.4447 10.103 47.2211 10.103C48.4412 10.103 49.3285 10.3249 49.994 10.8794C50.5486 11.434 50.9922 12.3213 50.9922 13.4305ZM49.7721 13.4305C49.7721 12.6541 49.5503 11.9886 49.1067 11.5449C48.663 11.1013 47.9975 10.8794 47.2211 10.8794C46.8883 10.8794 46.5556 10.8794 46.3338 10.9904V16.2034C46.4447 16.2034 46.7774 16.2034 47.1102 16.2034C47.9975 16.2034 48.663 15.9816 49.1067 15.5379C49.5503 15.0942 49.7721 14.3178 49.7721 13.4305Z" fill="#ABB6C1"/>
<path opacity="0.7" d="M57.208 14.5394C57.208 15.3158 56.9862 15.9813 56.5425 16.425C56.0988 16.9796 55.4334 17.2014 54.6569 17.2014C53.8805 17.2014 53.326 16.9796 52.8823 16.425C52.4386 15.9813 52.2168 15.3158 52.2168 14.5394C52.2168 13.763 52.4386 13.0975 52.8823 12.6539C53.326 12.0993 53.9915 11.8774 54.7679 11.8774C55.5443 11.8774 56.0988 12.0993 56.5425 12.6539C56.9862 13.0975 57.208 13.763 57.208 14.5394ZM56.0988 14.5394C56.0988 14.0958 55.9879 13.6521 55.7661 13.3193C55.5443 12.8757 55.2115 12.7648 54.7679 12.7648C54.3242 12.7648 53.9914 12.9866 53.7696 13.3193C53.5478 13.6521 53.4369 14.0958 53.4369 14.5394C53.4369 14.9831 53.5478 15.4267 53.7696 15.7595C53.9914 16.2032 54.3242 16.3141 54.7679 16.3141C55.2115 16.3141 55.5443 16.0922 55.7661 15.6486C55.9879 15.4267 56.0988 14.9831 56.0988 14.5394Z" fill="#ABB6C1"/>
<path opacity="0.7" d="M65.7439 11.9885L64.191 17.0906H63.1928L62.5273 14.8723C62.3055 14.3178 62.1945 13.7632 62.0836 13.2086C61.9727 13.7632 61.8618 14.3178 61.64 14.8723L60.9745 17.0906H59.9762L58.3125 11.9885H59.4217L59.9762 14.4287C60.0872 14.9832 60.1981 15.5378 60.309 16.0924C60.4199 15.6487 60.5308 15.0942 60.7526 14.4287L61.4181 11.9885H62.3055L62.971 14.3178C63.1928 14.8723 63.3037 15.4269 63.4146 15.9815C63.5255 15.4269 63.6365 14.8723 63.7474 14.3178L64.4129 11.9885H65.7439Z" fill="#ABB6C1"/>
<path opacity="0.7" d="M71.5113 17.0908H70.4021V14.207C70.4021 13.3197 70.0694 12.876 69.4039 12.876C69.0711 12.876 68.8493 12.9869 68.6275 13.2088C68.4056 13.4306 68.2947 13.7633 68.2947 14.0961V17.0908H67.1855V13.4306C67.1855 12.9869 67.1855 12.5433 67.1855 11.9887H68.1838V12.7651C68.2947 12.5433 68.5165 12.3214 68.7384 12.0996C69.0711 11.8778 69.4039 11.7668 69.7366 11.7668C70.1803 11.7668 70.6239 11.8778 70.9567 12.2105C71.4003 12.5433 71.5113 13.0978 71.5113 13.8742V17.0908Z" fill="#ABB6C1"/>
<path opacity="0.7" d="M74.6189 17.0908H73.5098V9.65942H74.6189V17.0908Z" fill="#ABB6C1"/>
<path opacity="0.7" d="M81.2734 14.5394C81.2734 15.3158 81.0516 15.9813 80.6079 16.425C80.1643 16.9796 79.4988 17.2014 78.7224 17.2014C77.946 17.2014 77.3914 16.9796 76.9477 16.425C76.5041 15.9813 76.2822 15.3158 76.2822 14.5394C76.2822 13.763 76.5041 13.0975 76.9477 12.6539C77.3914 12.2102 78.0569 11.8774 78.8333 11.8774C79.6097 11.8774 80.1643 12.0993 80.6079 12.6539C81.0516 13.0975 81.2734 13.763 81.2734 14.5394ZM80.1643 14.5394C80.1643 14.0958 80.0534 13.6521 79.8315 13.3193C79.6097 12.8757 79.2769 12.7648 78.8333 12.7648C78.3896 12.7648 78.0569 12.9866 77.835 13.3193C77.6132 13.6521 77.5023 14.0958 77.5023 14.5394C77.5023 14.9831 77.6132 15.4267 77.835 15.7595C78.0569 16.2032 78.3896 16.3141 78.8333 16.3141C79.2769 16.3141 79.6097 16.0922 79.8315 15.6486C80.0534 15.4267 80.1643 14.9831 80.1643 14.5394Z" fill="#ABB6C1"/>
<path opacity="0.7" d="M86.7094 17.0905H85.7111L85.6002 16.5359C85.2674 16.9796 84.7129 17.2014 84.1583 17.2014C83.7146 17.2014 83.271 17.0905 83.0491 16.7577C82.8273 16.425 82.6055 16.0922 82.6055 15.7595C82.6055 15.094 82.8273 14.6503 83.3819 14.3176C83.9365 13.9848 84.602 13.8739 85.6002 13.8739V13.763C85.6002 13.0975 85.2674 12.7648 84.602 12.7648C84.0474 12.7648 83.7146 12.8757 83.271 13.0975L83.0491 12.3211C83.4928 11.9884 84.0474 11.8774 84.8238 11.8774C86.1548 11.8774 86.8203 12.5429 86.8203 13.9848V15.8704C86.7094 16.425 86.7094 16.7577 86.7094 17.0905ZM85.6002 15.3158V14.5394C84.3801 14.5394 83.7146 14.8722 83.7146 15.5377C83.7146 15.7595 83.8255 15.9813 83.9365 16.0922C84.0474 16.2032 84.2692 16.3141 84.491 16.3141C84.7129 16.3141 84.9347 16.2032 85.1565 16.0922C85.3784 15.9813 85.4893 15.7595 85.6002 15.5377C85.6002 15.5377 85.6002 15.4267 85.6002 15.3158Z" fill="#ABB6C1"/>
<path opacity="0.7" d="M93.1405 17.0909H92.1422V16.3145C91.8095 16.98 91.2549 17.2019 90.4785 17.2019C89.813 17.2019 89.3693 16.98 88.9257 16.5364C88.482 16.0927 88.3711 15.4272 88.3711 14.6508C88.3711 13.8744 88.5929 13.2089 89.0366 12.6543C89.4802 12.2107 90.0348 11.9888 90.5894 11.9888C91.2549 11.9888 91.6986 12.2107 92.0313 12.6543V9.77051H93.1405V15.76C93.1405 16.2036 93.1405 16.6473 93.1405 17.0909ZM92.0313 14.9835V14.0962C92.0313 13.9853 92.0313 13.8744 92.0313 13.7635C91.9204 13.5416 91.8095 13.3198 91.5876 13.098C91.3658 12.8761 91.144 12.8761 90.8112 12.8761C90.3676 12.8761 90.0348 13.098 89.813 13.4307C89.5912 13.7635 89.4803 14.2071 89.4803 14.7617C89.4803 15.3163 89.5912 15.649 89.813 15.9818C90.0348 16.3145 90.3676 16.5364 90.8112 16.5364C91.144 16.5364 91.4767 16.4254 91.6986 16.0927C91.9204 15.649 92.0313 15.3163 92.0313 14.9835Z" fill="#ABB6C1"/>
<path opacity="0.7" d="M102.791 14.5394C102.791 15.3158 102.569 15.9813 102.126 16.425C101.682 16.9796 101.016 17.2014 100.24 17.2014C99.4635 17.2014 98.909 16.9796 98.4653 16.425C98.0216 15.9813 97.7998 15.3158 97.7998 14.5394C97.7998 13.763 98.0216 13.0975 98.4653 12.6539C98.909 12.0993 99.5745 11.8774 100.351 11.8774C101.127 11.8774 101.682 12.0993 102.126 12.6539C102.569 13.0975 102.791 13.763 102.791 14.5394ZM101.571 14.5394C101.571 14.0958 101.46 13.6521 101.238 13.3193C101.016 12.8757 100.684 12.7648 100.24 12.7648C99.7963 12.7648 99.4635 12.9866 99.2417 13.3193C99.0199 13.6521 98.909 14.0958 98.909 14.5394C98.909 14.9831 99.0199 15.4267 99.2417 15.7595C99.4635 16.2032 99.7963 16.3141 100.24 16.3141C100.684 16.3141 101.016 16.0922 101.238 15.6486C101.46 15.4267 101.571 14.9831 101.571 14.5394Z" fill="#ABB6C1"/>
<path opacity="0.7" d="M108.89 17.0908H107.781V14.207C107.781 13.3197 107.448 12.876 106.783 12.876C106.45 12.876 106.228 12.9869 106.006 13.2088C105.785 13.4306 105.674 13.7633 105.674 14.0961V17.0908H104.564V13.4306C104.564 12.9869 104.564 12.5433 104.564 11.9887H105.563V12.7651C105.674 12.5433 105.895 12.3214 106.117 12.0996C106.45 11.8778 106.783 11.7668 107.116 11.7668C107.559 11.7668 108.003 11.8778 108.336 12.2105C108.779 12.5433 108.89 13.0978 108.89 13.8742V17.0908Z" fill="#ABB6C1"/>
<path opacity="0.7" d="M116.432 12.8755H115.212V15.3156C115.212 15.9811 115.434 16.2029 115.878 16.2029C116.099 16.2029 116.21 16.2029 116.432 16.2029V17.0903C116.21 17.2012 115.878 17.2012 115.545 17.2012C115.101 17.2012 114.768 17.0903 114.547 16.7575C114.325 16.5357 114.214 15.9811 114.214 15.4265V12.8755H113.438V11.9881H114.214V11.1008L115.323 10.7681V11.9881H116.543V12.8755H116.432Z" fill="#ABB6C1"/>
<path opacity="0.7" d="M122.422 17.0908H121.313V14.207C121.313 13.3196 120.98 12.876 120.315 12.876C119.76 12.876 119.428 13.0978 119.206 13.6524C119.206 13.7633 119.206 13.8742 119.206 14.096V17.0908H118.097V9.65942H119.206V12.7651C119.539 12.2105 120.093 11.8777 120.759 11.8777C121.202 11.8777 121.646 11.9887 121.868 12.3214C122.201 12.6541 122.422 13.3196 122.422 13.9851V17.0908Z" fill="#ABB6C1"/>
<path opacity="0.7" d="M128.525 14.3178C128.525 14.5396 128.525 14.6505 128.525 14.8723H125.197C125.197 15.4269 125.419 15.7597 125.641 15.9815C125.973 16.2033 126.306 16.3142 126.75 16.3142C127.304 16.3142 127.748 16.2033 128.081 16.0924L128.303 16.8688C127.859 17.0906 127.304 17.2016 126.639 17.2016C125.863 17.2016 125.197 16.9797 124.753 16.5361C124.31 16.0924 124.088 15.4269 124.088 14.6505C124.088 13.8741 124.31 13.2086 124.753 12.7649C125.197 12.2104 125.752 11.9885 126.528 11.9885C127.304 11.9885 127.859 12.2104 128.192 12.7649C128.414 13.0977 128.525 13.6523 128.525 14.3178ZM127.526 13.985C127.526 13.6523 127.415 13.3195 127.304 13.0977C127.083 12.7649 126.861 12.654 126.417 12.654C126.084 12.654 125.752 12.7649 125.53 13.0977C125.308 13.3195 125.197 13.6523 125.197 13.985H127.526Z" fill="#ABB6C1"/>
<defs>
<linearGradient id="paint0_linear_aas" x1="-12.8323" y1="53.5135" x2="156.996" y2="-31.78" gradientUnits="userSpaceOnUse">
<stop stop-color="#2A2F34"/>
<stop offset="1" stop-color="#1F2328"/>
</linearGradient>
</defs>
</svg>
