<svg width="46" height="45" viewBox="0 0 46 45" fill="none" xmlns="http://www.w3.org/2000/svg" class="PlatformInfo_icon__OouKo"><path d="M11.0283 19.7914H10.7783V20.0414V25.4177L0.863012 16L10.7783 6.58225V11.3812V11.6312H11.0283H29.25V19.7914H11.0283Z" fill="#797BF6" stroke="url(#paint0_linear_3004_39055)" stroke-width="0.5"></path><g filter="url(#filter0_bi_3004_39055)"><path d="M34.9717 39L45.5 29L34.9717 19L34.9717 24.9586L16.5 24.9586L16.5 33.6188L34.9717 33.6188L34.9717 39Z" fill="#CFD3FD" fill-opacity="0.53"></path><path d="M34.9717 25.2086L35.2217 25.2086L35.2217 24.9586L35.2217 19.5823L45.137 29L35.2217 38.4177L35.2217 33.6188L35.2217 33.3688L34.9717 33.3688L16.75 33.3688L16.75 25.2086L34.9717 25.2086Z" stroke="url(#paint1_linear_3004_39055)" stroke-width="0.5"></path></g><defs><filter id="filter0_bi_3004_39055" x="12.6956" y="15.1956" width="36.6087" height="28.3696" filterUnits="userSpaceOnUse" color-interpolation-filters="sRGB"><feFlood flood-opacity="0" result="BackgroundImageFix"></feFlood><feGaussianBlur in="BackgroundImageFix" stdDeviation="1.90219"></feGaussianBlur><feComposite in2="SourceAlpha" operator="in" result="effect1_backgroundBlur_3004_39055"></feComposite><feBlend mode="normal" in="SourceGraphic" in2="effect1_backgroundBlur_3004_39055" result="shape"></feBlend><feColorMatrix in="SourceAlpha" type="matrix" values="0 0 0 0 0 0 0 0 0 0 0 0 0 0 0 0 0 0 127 0" result="hardAlpha"></feColorMatrix><feOffset dy="4.56525"></feOffset><feGaussianBlur stdDeviation="30.435"></feGaussianBlur><feComposite in2="hardAlpha" operator="arithmetic" k2="-1" k3="1"></feComposite><feColorMatrix type="matrix" values="0 0 0 0 0.560784 0 0 0 0 0.607843 0 0 0 0 1 0 0 0 0.3 0"></feColorMatrix><feBlend mode="normal" in2="shape" result="effect2_innerShadow_3004_39055"></feBlend></filter><linearGradient id="paint0_linear_3004_39055" x1="16.1367" y1="27.3702" x2="19.817" y2="-0.532106" gradientUnits="userSpaceOnUse"><stop stop-color="white"></stop><stop offset="1" stop-color="white" stop-opacity="0"></stop></linearGradient><linearGradient id="paint1_linear_3004_39055" x1="29.8633" y1="17.6298" x2="26.183" y2="45.5321" gradientUnits="userSpaceOnUse"><stop stop-color="white"></stop><stop offset="1" stop-color="white" stop-opacity="0"></stop></linearGradient></defs></svg>