<svg width="45" height="45" viewBox="0 0 45 45" fill="none" xmlns="http://www.w3.org/2000/svg" class="PlatformInfo_icon__OouKo"><path d="M37.7785 24.7732C38.8966 24.1504 39.7751 23.1771 40.2766 22.0057C40.7781 20.8343 40.8743 19.5308 40.5501 18.2994C40.2259 17.0679 39.4996 15.9779 38.4849 15.1999C37.4702 14.422 36.2243 14 34.9423 14C33.6602 14 32.4143 14.422 31.3996 15.1999C30.3849 15.9779 29.6586 17.0679 29.3344 18.2994C29.0102 19.5308 29.1064 20.8343 29.6079 22.0057C30.1094 23.1771 30.9879 24.1504 32.106 24.7732C30.4599 24.9035 28.9235 25.644 27.8023 26.8476C26.6811 28.0512 26.0572 29.6296 26.0547 31.269C26.0547 31.3194 26.0647 31.3693 26.0841 31.4159C26.1035 31.4624 26.132 31.5047 26.1678 31.5403C26.2037 31.576 26.2463 31.6042 26.2932 31.6235C26.3401 31.6428 26.3904 31.6527 26.4411 31.6527H43.4434C43.4942 31.6527 43.5444 31.6428 43.5913 31.6235C43.6382 31.6042 43.6808 31.576 43.7167 31.5403C43.7526 31.5047 43.781 31.4624 43.8004 31.4159C43.8199 31.3693 43.8298 31.3194 43.8298 31.269C43.8273 29.6296 43.2034 28.0512 42.0822 26.8476C40.961 25.644 39.4246 24.9035 37.7785 24.7732Z" fill="#9FA3FA" stroke="url(#paint0_linear_3119_39519)" stroke-width="0.498372"></path><path d="M13.2238 24.7732C14.3419 24.1504 15.2204 23.1771 15.7219 22.0057C16.2234 20.8343 16.3196 19.5308 15.9954 18.2994C15.6712 17.0679 14.9449 15.9779 13.9302 15.1999C12.9155 14.422 11.6696 14 10.3876 14C9.10552 14 7.85965 14.422 6.84493 15.1999C5.83022 15.9779 5.10393 17.0679 4.77972 18.2994C4.45552 19.5308 4.5517 20.8343 5.05321 22.0057C5.55472 23.1771 6.43326 24.1504 7.55134 24.7732C5.90526 24.9035 4.36885 25.644 3.24763 26.8476C2.12641 28.0512 1.50251 29.6296 1.5 31.269C1.49999 31.3194 1.50997 31.3693 1.52939 31.4159C1.5488 31.4624 1.57726 31.5047 1.61315 31.5403C1.64903 31.576 1.69164 31.6042 1.73853 31.6235C1.78541 31.6428 1.83567 31.6527 1.88642 31.6527H18.8887C18.9395 31.6527 18.9897 31.6428 19.0366 31.6235C19.0835 31.6042 19.1261 31.576 19.162 31.5403C19.1979 31.5047 19.2263 31.4624 19.2458 31.4159C19.2652 31.3693 19.2752 31.3194 19.2751 31.269C19.2726 29.6296 18.6487 28.0512 17.5275 26.8476C16.4063 25.644 14.8699 24.9035 13.2238 24.7732Z" fill="#9FA3FA" stroke="url(#paint1_linear_3119_39519)" stroke-width="0.498372"></path><path d="M26.3082 25.4777C28.0065 24.5251 29.341 23.0365 30.1028 21.2448C30.8646 19.4531 31.0106 17.4595 30.5182 15.5759C30.0257 13.6924 28.9225 12.0252 27.3812 10.8353C25.8399 9.64545 23.9474 9 22 9C20.0526 9 18.1602 9.64545 16.6188 10.8353C15.0775 12.0252 13.9743 13.6924 13.4818 15.5759C12.9894 17.4595 13.1354 19.4531 13.8972 21.2448C14.659 23.0365 15.9935 24.5251 17.6918 25.4777C15.1915 25.677 12.8577 26.8096 11.1546 28.6505C9.4515 30.4914 8.50382 32.9057 8.5 35.4132C8.49998 35.4903 8.51515 35.5666 8.54464 35.6378C8.57413 35.709 8.61736 35.7737 8.67187 35.8282C8.72638 35.8827 8.79109 35.9259 8.86231 35.9554C8.93354 35.9849 9.00987 36 9.08696 36H34.913C34.9901 36 35.0665 35.9849 35.1377 35.9554C35.2089 35.9259 35.2736 35.8827 35.3281 35.8282C35.3826 35.7737 35.4259 35.709 35.4554 35.6378C35.4849 35.5666 35.5 35.4903 35.5 35.4132C35.4962 32.9057 34.5485 30.4914 32.8454 28.6505C31.1423 26.8096 28.8085 25.677 26.3082 25.4777Z" fill="#797BF6" stroke="url(#paint2_linear_3119_39519)" stroke-width="0.498372"></path><defs><linearGradient id="paint0_linear_3119_39519" x1="35.639" y1="32.862" x2="40.2323" y2="8.67852" gradientUnits="userSpaceOnUse"><stop stop-color="white" stop-opacity="0"></stop><stop offset="1" stop-color="white"></stop></linearGradient><linearGradient id="paint1_linear_3119_39519" x1="11.0843" y1="32.862" x2="15.6776" y2="8.67852" gradientUnits="userSpaceOnUse"><stop stop-color="white" stop-opacity="0"></stop><stop offset="1" stop-color="white"></stop></linearGradient><linearGradient id="paint2_linear_3119_39519" x1="23.0583" y1="37.8497" x2="30.1291" y2="0.878658" gradientUnits="userSpaceOnUse"><stop stop-color="white" stop-opacity="0"></stop><stop offset="1" stop-color="white"></stop></linearGradient></defs></svg>