<svg width="46" height="45" viewBox="0 0 46 45" fill="none" xmlns="http://www.w3.org/2000/svg" class="PlatformInfo_icon__OouKo"><path d="M12.647 35.9503L12.5531 35.8903L12.4457 35.92L7.13148 37.3901L8.6016 32.0759L8.63132 31.9685L8.57127 31.8746L8.20939 31.3086C6.5297 28.6806 5.6416 25.6347 5.6416 22.4996C5.6416 13.4675 12.99 6.11914 22.022 6.11914C31.0541 6.11914 38.4025 13.4675 38.4025 22.4996C38.4025 31.5316 31.0541 38.88 22.022 38.88C18.887 38.88 15.8414 37.9919 13.2131 36.3122C13.213 36.3122 13.213 36.3122 13.213 36.3122L12.647 35.9503Z" fill="#797BF6" stroke="url(#paint0_linear_2881_42582)" stroke-width="0.5"></path><g filter="url(#filter0_bi_2881_42582)"><path fill-rule="evenodd" clip-rule="evenodd" d="M24.1165 25.8672H37.8598C39.3754 25.8672 40.6084 27.1002 40.6084 28.6158V34.1131C40.6084 35.6287 39.3754 36.8618 37.8598 36.8618H37.31V38.6484C37.31 38.9525 37.0631 39.1981 36.7603 39.1981C36.5506 39.1981 36.8296 39.3302 32.5684 36.7839L29.8428 36.8618H24.1165C22.6009 36.8618 21.3679 35.6287 21.3679 34.1131V28.6158C21.3679 27.1002 22.6009 25.8672 24.1165 25.8672Z" fill="#CFD3FD" fill-opacity="0.53"></path><path d="M37.0971 36.8618V36.6488H37.31H37.8598C39.2578 36.6488 40.3955 35.5111 40.3955 34.1131V28.6158C40.3955 27.2178 39.2578 26.0801 37.8598 26.0801H24.1165C22.7185 26.0801 21.5808 27.2178 21.5808 28.6158V34.1131C21.5808 35.5111 22.7185 36.6488 24.1165 36.6488H29.8398L32.5623 36.5711L32.6244 36.5693L32.6776 36.6011C33.614 37.1606 34.3306 37.5905 34.8812 37.9208C35.5847 38.3428 36.0173 38.6023 36.2909 38.7619C36.5395 38.9069 36.6423 38.9605 36.6938 38.9807C36.7024 38.9841 36.7075 38.9857 36.71 38.9863C36.7114 38.9863 36.714 38.9863 36.7185 38.9862C36.7197 38.9861 36.7212 38.9861 36.7229 38.986C36.7314 38.9857 36.7455 38.9852 36.7603 38.9852C36.9459 38.9852 37.0971 38.8346 37.0971 38.6484V36.8618Z" stroke="url(#paint1_linear_2881_42582)" stroke-width="0.425887"></path></g><path d="M25.6748 31.861C26.5084 31.861 27.1866 31.1829 27.1866 30.3493C27.1866 29.5157 26.5084 28.8375 25.6748 28.8375H24.7128C24.4092 28.8375 24.1631 29.0837 24.1631 29.3873C24.1631 29.6908 24.4092 29.937 24.7128 29.937H25.6748C25.9022 29.937 26.0871 30.1219 26.0871 30.3493C26.0871 30.5767 25.9022 30.7616 25.6748 30.7616C24.8412 30.7616 24.1631 31.4397 24.1631 32.2733V33.2354C24.1631 33.5389 24.4092 33.7851 24.7128 33.7851H26.6369C26.9405 33.7851 27.1866 33.5389 27.1866 33.2354C27.1866 32.9318 26.9405 32.6856 26.6369 32.6856H25.2625V32.2733C25.2625 32.046 25.4475 31.861 25.6748 31.861ZM30.485 33.7851C30.7886 33.7851 31.0347 33.5389 31.0347 33.2354C31.0347 32.7683 31.0347 29.8561 31.0347 29.3873C31.0347 29.0837 30.7886 28.8375 30.485 28.8375C30.1814 28.8375 29.9352 29.0837 29.9352 29.3873V30.7616H29.1106V29.3873C29.1106 29.0837 28.8645 28.8375 28.5609 28.8375C28.2573 28.8375 28.0112 29.0837 28.0112 29.3873V31.3113C28.0112 31.6149 28.2573 31.861 28.5609 31.861H29.9352V33.2354C29.9352 33.5389 30.1813 33.7851 30.485 33.7851ZM35.8807 33.7852C36.1089 33.7852 36.3222 33.642 36.4005 33.4141L37.7233 29.566C37.8459 29.2094 37.5805 28.8375 37.2035 28.8375H35.2952C34.9916 28.8375 34.7454 29.0837 34.7454 29.3873C34.7454 29.6908 34.9916 29.937 35.2952 29.937H36.4332L35.3609 33.0566C35.2375 33.4151 35.5056 33.7854 35.8807 33.7852ZM32.9266 33.3672L33.8886 29.5191C33.9622 29.2245 33.7831 28.9261 33.4886 28.8524C33.194 28.7789 32.8956 28.9579 32.8219 29.2524L31.8599 33.1005C31.7863 33.3951 31.9654 33.6936 32.2599 33.7672C32.5549 33.8408 32.8531 33.6615 32.9266 33.3672Z" fill="#1A1E22"></path><circle cx="22.5" cy="23" r="2" fill="#191D21"></circle><circle cx="15.5" cy="23" r="2" fill="#191D21"></circle><circle cx="29.5" cy="23" r="2" fill="#191D21"></circle><defs><filter id="filter0_bi_2881_42582" x="19.2387" y="23.7378" width="23.4991" height="18.0168" filterUnits="userSpaceOnUse" color-interpolation-filters="sRGB"><feFlood flood-opacity="0" result="BackgroundImageFix"></feFlood><feGaussianBlur in="BackgroundImageFix" stdDeviation="1.06472"></feGaussianBlur><feComposite in2="SourceAlpha" operator="in" result="effect1_backgroundBlur_2881_42582"></feComposite><feBlend mode="normal" in="SourceGraphic" in2="effect1_backgroundBlur_2881_42582" result="shape"></feBlend><feColorMatrix in="SourceAlpha" type="matrix" values="0 0 0 0 0 0 0 0 0 0 0 0 0 0 0 0 0 0 127 0" result="hardAlpha"></feColorMatrix><feOffset dy="2.55532"></feOffset><feGaussianBlur stdDeviation="17.0355"></feGaussianBlur><feComposite in2="hardAlpha" operator="arithmetic" k2="-1" k3="1"></feComposite><feColorMatrix type="matrix" values="0 0 0 0 0.560784 0 0 0 0 0.607843 0 0 0 0 1 0 0 0 0.3 0"></feColorMatrix><feBlend mode="normal" in2="shape" result="effect2_innerShadow_2881_42582"></feBlend></filter><linearGradient id="paint0_linear_2881_42582" x1="23.3257" y1="41.4087" x2="32.0362" y2="-4.13541" gradientUnits="userSpaceOnUse"><stop stop-color="white" stop-opacity="0"></stop><stop offset="1" stop-color="white"></stop></linearGradient><linearGradient id="paint1_linear_2881_42582" x1="30.234" y1="40.1127" x2="27.7695" y2="21.5159" gradientUnits="userSpaceOnUse"><stop stop-color="white"></stop><stop offset="1" stop-color="white" stop-opacity="0"></stop></linearGradient></defs></svg>