<svg width="46" height="45" viewBox="0 0 46 45" fill="none" xmlns="http://www.w3.org/2000/svg" class="PlatformInfo_icon__OouKo"><path d="M14.25 40.9678V26C14.25 25.5858 14.5858 25.25 15 25.25H30C30.4142 25.25 30.75 25.5858 30.75 26V40.9678C30.75 41.5902 30.0356 41.9418 29.5424 41.562L23.2626 36.7263C22.8131 36.3801 22.1869 36.3801 21.7373 36.7263L15.4576 41.562C14.9644 41.9418 14.25 41.5902 14.25 40.9678Z" fill="#797BF6" stroke="url(#paint0_linear_693_6251)" stroke-width="0.5"></path><g filter="url(#filter0_bi_693_6251)"><circle cx="22.5" cy="16.5" r="13.5" fill="#CFD3FD" fill-opacity="0.53"></circle><circle cx="22.5" cy="16.5" r="13.2404" stroke="url(#paint1_linear_693_6251)" stroke-width="0.519237"></circle></g><path fill-rule="evenodd" clip-rule="evenodd" d="M23.2077 10H21.9871V11.2184C21.6476 11.2656 21.3323 11.35 21.0421 11.4727C20.7007 11.6073 20.4027 11.7951 20.151 12.0378C19.8986 12.2811 19.6997 12.5721 19.5548 12.9089L19.5536 12.9117C19.4156 13.2448 19.3491 13.6205 19.3491 14.0341C19.3491 14.8378 19.5728 15.4956 20.0382 15.981L20.0413 15.9842C20.4804 16.4228 21.1407 16.7477 22.0005 16.974V20.3054C21.6632 20.229 21.3633 20.0978 21.0987 19.9135C20.7809 19.676 20.4843 19.3585 20.21 18.9569L20.082 18.7694L19 19.8285L19.1069 19.9827C19.4513 20.4797 19.8658 20.8959 20.3497 21.2305L20.3535 21.233C20.8146 21.5364 21.361 21.7188 21.9871 21.7867V23H23.2077V21.7813C24.0153 21.6691 24.6743 21.3649 25.1691 20.8552C25.7125 20.2948 25.9796 19.5608 25.9796 18.674C25.9796 17.8613 25.7516 17.202 25.2756 16.7256C24.8238 16.2552 24.1208 15.9159 23.1943 15.6887V12.6972C23.5032 12.7713 23.7718 12.8923 24.0029 13.0578L24.0062 13.0601C24.2963 13.2587 24.5457 13.5165 24.7548 13.8355L24.8715 14.0134L26 13.0861L25.8896 12.919C25.5534 12.4102 25.1493 12.0096 24.6771 11.721C24.2549 11.4492 23.7637 11.2782 23.2077 11.2032V10ZM20.7973 13.9466C20.7973 13.5774 20.917 13.2993 21.1531 13.0898C21.3693 12.9045 21.6493 12.7699 22.0005 12.6928V15.3863C21.6071 15.2501 21.3165 15.0894 21.1186 14.9107C20.9142 14.7094 20.7973 14.4008 20.7973 13.9466ZM23.1943 20.3061V17.2415C23.6747 17.3912 24.0001 17.5692 24.1913 17.7631L24.1938 17.7655C24.4103 17.9779 24.5313 18.2935 24.5313 18.747C24.5313 19.1892 24.3945 19.5409 24.1236 19.8192C23.8978 20.0508 23.5916 20.2163 23.1943 20.3061Z" fill="#191D21"></path><defs><filter id="filter0_bi_693_6251" x="6.40382" y="0.403817" width="32.1924" height="32.7116" filterUnits="userSpaceOnUse" color-interpolation-filters="sRGB"><feFlood flood-opacity="0" result="BackgroundImageFix"></feFlood><feGaussianBlur in="BackgroundImageFix" stdDeviation="1.29809"></feGaussianBlur><feComposite in2="SourceAlpha" operator="in" result="effect1_backgroundBlur_693_6251"></feComposite><feBlend mode="normal" in="SourceGraphic" in2="effect1_backgroundBlur_693_6251" result="shape"></feBlend><feColorMatrix in="SourceAlpha" type="matrix" values="0 0 0 0 0 0 0 0 0 0 0 0 0 0 0 0 0 0 127 0" result="hardAlpha"></feColorMatrix><feOffset dy="3.11542"></feOffset><feGaussianBlur stdDeviation="20.7695"></feGaussianBlur><feComposite in2="hardAlpha" operator="arithmetic" k2="-1" k3="1"></feComposite><feColorMatrix type="matrix" values="0 0 0 0 0.560784 0 0 0 0 0.607843 0 0 0 0 1 0 0 0 0.3 0"></feColorMatrix><feBlend mode="normal" in2="shape" result="effect2_innerShadow_693_6251"></feBlend></filter><linearGradient id="paint0_linear_693_6251" x1="42.3333" y1="16.5438" x2="35.2267" y2="55.2771" gradientUnits="userSpaceOnUse"><stop stop-color="white"></stop><stop offset="1" stop-color="white" stop-opacity="0"></stop></linearGradient><linearGradient id="paint1_linear_693_6251" x1="23.5583" y1="31.8498" x2="30.6292" y2="-5.12135" gradientUnits="userSpaceOnUse"><stop stop-color="white"></stop><stop offset="1" stop-color="white" stop-opacity="0"></stop></linearGradient></defs></svg>