<svg width="46" height="45" viewBox="0 0 46 45" fill="none" xmlns="http://www.w3.org/2000/svg" class="PlatformInfo_icon__OouKo"><path fill-rule="evenodd" clip-rule="evenodd" d="M44.8772 32.5303C45.1149 33.0007 44.7699 33.5558 44.2429 33.551L2.19848 33.1692C1.55329 33.1633 1.25566 32.3645 1.73972 31.9379L30.6988 6.41609C31.0442 6.11162 31.5842 6.21565 31.7918 6.62667L44.8772 32.5303Z" fill="#797BF6" stroke="url(#paint0_linear_2881_42487)" stroke-width="0.355124"></path><g filter="url(#filter0_bi_2881_42487)"><path fill-rule="evenodd" clip-rule="evenodd" d="M22.8242 39.6174C22.3337 39.7345 21.883 39.3127 21.9672 38.8156L25.5817 17.4851C25.6734 16.9442 26.3214 16.7117 26.736 17.071L45.2566 33.1191C45.6896 33.4943 45.5165 34.2021 44.9592 34.3351L22.8242 39.6174Z" fill="#CFD3FD" fill-opacity="0.33"></path><path fill-rule="evenodd" clip-rule="evenodd" d="M22.8242 39.6174C22.3337 39.7345 21.883 39.3127 21.9672 38.8156L25.5817 17.4851C25.6734 16.9442 26.3214 16.7117 26.736 17.071L45.2566 33.1191C45.6896 33.4943 45.5165 34.2021 44.9592 34.3351L22.8242 39.6174Z" stroke="url(#paint1_linear_2881_42487)" stroke-width="0.355124"></path></g><defs><filter id="filter0_bi_2881_42487" x="19.1603" y="14.1017" width="29.1365" height="28.5538" filterUnits="userSpaceOnUse" color-interpolation-filters="sRGB"><feFlood flood-opacity="0" result="BackgroundImageFix"></feFlood><feGaussianBlur in="BackgroundImageFix" stdDeviation="1.30952"></feGaussianBlur><feComposite in2="SourceAlpha" operator="in" result="effect1_backgroundBlur_2881_42487"></feComposite><feBlend mode="normal" in="SourceGraphic" in2="effect1_backgroundBlur_2881_42487" result="shape"></feBlend><feColorMatrix in="SourceAlpha" type="matrix" values="0 0 0 0 0 0 0 0 0 0 0 0 0 0 0 0 0 0 127 0" result="hardAlpha"></feColorMatrix><feOffset dy="2.84099"></feOffset><feGaussianBlur stdDeviation="17.7562"></feGaussianBlur><feComposite in2="hardAlpha" operator="arithmetic" k2="-1" k3="1"></feComposite><feColorMatrix type="matrix" values="0 0 0 0 0.560784 0 0 0 0 0.607843 0 0 0 0 1 0 0 0 0.3 0"></feColorMatrix><feBlend mode="normal" in2="shape" result="effect2_innerShadow_2881_42487"></feBlend></filter><linearGradient id="paint0_linear_2881_42487" x1="30.3096" y1="45.5239" x2="2.16303" y2="12.3826" gradientUnits="userSpaceOnUse"><stop stop-color="white"></stop><stop offset="1" stop-color="white" stop-opacity="0"></stop></linearGradient><linearGradient id="paint1_linear_2881_42487" x1="36.3335" y1="42.358" x2="11.368" y2="16.3507" gradientUnits="userSpaceOnUse"><stop stop-color="white"></stop><stop offset="1" stop-color="white" stop-opacity="0"></stop></linearGradient></defs></svg>