<svg width="46" height="45" viewBox="0 0 46 45" fill="none" xmlns="http://www.w3.org/2000/svg" class="PlatformInfo_icon__OouKo"><path d="M36.5918 20.9515C36.5918 19.1866 38.0225 17.7559 39.7874 17.7559C41.5523 17.7559 42.983 19.1866 42.983 20.9515V33.231H36.5918V20.9515Z" fill="#797BF6" stroke="url(#paint0_linear_2881_42495)" stroke-width="0.5"></path><path d="M29.3867 17.7559H38.2426C37.1433 18.3962 36.4044 19.5876 36.4044 20.9515V37.2399C36.4044 39.1778 34.8335 40.7487 32.8956 40.7487C30.9577 40.7487 29.3867 39.1778 29.3867 37.2399V17.7559Z" fill="#9FA3FA" stroke="url(#paint1_linear_2881_42495)" stroke-width="0.5"></path><path d="M27.7103 4.06512L30.0445 6.25052V37.2392C30.0445 38.7494 30.8796 40.0645 32.1132 40.748H12.5966C8.40974 40.748 5.01562 37.3539 5.01562 33.1671V6.25052L7.34984 4.06512L9.68825 6.25444L9.76035 6.32194H9.85911H10.009H10.1078L10.1799 6.25444L12.5183 4.06512L14.8533 6.25129L15.0242 6.41126L15.195 6.25129L17.5301 4.06512L19.8651 6.25129L20.036 6.41126L20.2069 6.25129L22.5419 4.06512L24.8803 6.25444L24.9524 6.32194H25.0512H25.2011H25.2998L25.3719 6.25444L27.7103 4.06512Z" fill="#797BF6" stroke="url(#paint2_linear_2881_42495)" stroke-width="0.5"></path><circle cx="17.2171" cy="22.4408" r="8.59898" fill="#9FA3FA" stroke="url(#paint3_linear_2881_42495)" stroke-width="0.5"></circle><path fill-rule="evenodd" clip-rule="evenodd" d="M17.3518 17.666H16.4138V18.5308C16.1529 18.5643 15.9106 18.6242 15.6875 18.7113C15.4252 18.8069 15.1962 18.9402 15.0027 19.1125C14.8087 19.2851 14.6559 19.4917 14.5445 19.7308L14.5436 19.7327C14.4375 19.9692 14.3864 20.2358 14.3864 20.5294C14.3864 21.0998 14.5584 21.5667 14.916 21.9113L14.9184 21.9135C15.2559 22.2248 15.7633 22.4555 16.4241 22.6161V24.9807C16.1649 24.9265 15.9344 24.8333 15.7311 24.7025C15.4868 24.534 15.2588 24.3086 15.0481 24.0236L14.9497 23.8905L14.1182 24.6422L14.2003 24.7517C14.465 25.1044 14.7836 25.3998 15.1555 25.6373L15.1583 25.6391C15.5128 25.8544 15.9327 25.9839 16.4138 26.0321V26.8933H17.3518V26.0283C17.9725 25.9486 18.479 25.7327 18.8593 25.3709C19.2769 24.9732 19.4821 24.4522 19.4821 23.8228C19.4821 23.2459 19.3069 22.7779 18.9411 22.4398C18.5938 22.1059 18.0536 21.865 17.3415 21.7038V19.5804C17.5789 19.6331 17.7854 19.719 17.963 19.8364L17.9655 19.838C18.1884 19.979 18.3802 20.162 18.5409 20.3884L18.6305 20.5147L19.4978 19.8565L19.4129 19.7379C19.1546 19.3768 18.844 19.0924 18.4811 18.8876C18.1567 18.6947 17.7792 18.5732 17.3518 18.52V17.666ZM15.4994 20.4673C15.4994 20.2052 15.5914 20.0079 15.7728 19.8592C15.939 19.7276 16.1542 19.632 16.4241 19.5773V21.4891C16.1217 21.3925 15.8984 21.2784 15.7464 21.1516C15.5893 21.0087 15.4994 20.7897 15.4994 20.4673ZM17.3415 24.9812V22.806C17.7108 22.9122 17.9608 23.0385 18.1078 23.1762L18.1097 23.1779C18.2761 23.3287 18.3691 23.5527 18.3691 23.8746C18.3691 24.1884 18.2639 24.4381 18.0558 24.6356C17.8822 24.8 17.6469 24.9175 17.3415 24.9812Z" fill="#191D21"></path><defs><linearGradient id="paint0_linear_2881_42495" x1="47.8272" y1="10.0009" x2="35.5366" y2="40.5971" gradientUnits="userSpaceOnUse"><stop stop-color="white"></stop><stop offset="1" stop-color="white" stop-opacity="0"></stop></linearGradient><linearGradient id="paint1_linear_2881_42495" x1="35.0481" y1="42.6082" x2="46.7488" y2="14.058" gradientUnits="userSpaceOnUse"><stop stop-color="white"></stop><stop offset="1" stop-color="white" stop-opacity="0"></stop></linearGradient><linearGradient id="paint2_linear_2881_42495" x1="53.0565" y1="-13.789" x2="35.4484" y2="65.1969" gradientUnits="userSpaceOnUse"><stop stop-color="white"></stop><stop offset="1" stop-color="white" stop-opacity="0"></stop></linearGradient><linearGradient id="paint3_linear_2881_42495" x1="37.8648" y1="5.27744" x2="31.2423" y2="43.4953" gradientUnits="userSpaceOnUse"><stop stop-color="white"></stop><stop offset="1" stop-color="white" stop-opacity="0"></stop></linearGradient></defs></svg>