<svg width="415" height="415" viewBox="85 85 335 335" fill="none" xmlns="http://www.w3.org/2000/svg"><path d="M124.055 188.95a20.485 20.485 0 00-7.269-5.577 21.777 21.777 0 00-8.478-1.924 24.02 24.02 0 00-9.476 1.616 21.08 21.08 0 00-7.23 4.751 20.313 20.313 0 00-4.566 7.193 27.211 27.211 0 000 18.196 20.322 20.322 0 004.565 7.251 20.973 20.973 0 007.231 4.751 24.037 24.037 0 009.476 1.615 21.794 21.794 0 008.478-1.923 20.467 20.467 0 007.269-5.578l-4.968-3.847a12.993 12.993 0 01-4.373 4.059 12.328 12.328 0 01-6.406 1.654 15.894 15.894 0 01-6.771-1.193 14.775 14.775 0 01-5.14-3.443 15.527 15.527 0 01-3.223-5.501 21.965 21.965 0 010-13.752 15.55 15.55 0 013.222-5.482 14.837 14.837 0 015.102-3.597 15.93 15.93 0 016.771-1.192 12.33 12.33 0 016.407 1.654 13.022 13.022 0 014.373 4.059l4.968-3.847.038.057zm14.539 36.834h6.081v-22.158a19.267 19.267 0 011.918-9.232 14.665 14.665 0 014.181-4.982 11.214 11.214 0 014.392-2.097 23.583 23.583 0 012.609-.307c4.476 0 7.545 1.282 9.207 3.847a20.315 20.315 0 012.493 11.04v23.889h6.081v-27.428a18.054 18.054 0 00-3.952-12.502c-2.672-2.873-6.77-4.309-12.294-4.309a15.95 15.95 0 00-4.278.597c-1.427.39-2.804.945-4.104 1.654a16.945 16.945 0 00-3.491 2.539 14.164 14.164 0 00-2.571 3.231h-.191v-33.583h-6.081v69.801zm85.355-21.504v3.135a18.29 18.29 0 01-.786 5.405 11.728 11.728 0 01-6.541 7.424 13.806 13.806 0 01-5.754 1.116 16.149 16.149 0 01-3.645-.423 10.007 10.007 0 01-3.26-1.385 7.262 7.262 0 01-2.34-2.501 7.187 7.187 0 01-.883-3.654 6.193 6.193 0 012.264-5.078 14.598 14.598 0 015.428-2.731 33.171 33.171 0 016.636-1.116c2.302-.154 4.22-.231 5.755-.231l3.126.039zm-3.031-4.982c-2.557 0-5.396.122-8.516.366a33.543 33.543 0 00-8.746 1.923 16.602 16.602 0 00-6.81 4.482 11.853 11.853 0 00-2.723 8.27 11.562 11.562 0 001.247 5.501 12.18 12.18 0 003.318 3.963 14.06 14.06 0 004.738 2.404c1.794.526 3.654.792 5.524.788a19.126 19.126 0 008.88-1.923 16.497 16.497 0 006.311-6.232h.192c0 1.167.044 2.366.134 3.597.089 1.231.236 2.347.441 3.347h5.754c-.179-1.167-.345-2.661-.498-4.482-.154-1.821-.205-3.533-.154-5.135v-19.234a16.571 16.571 0 00-1.285-6.829 13.991 13.991 0 00-3.414-4.75 13.643 13.643 0 00-5.026-2.809 19.812 19.812 0 00-6.022-.923c-8.107 0-14.181 2.09-18.222 6.271l3.683 4.346a18.996 18.996 0 0113.158-5.077c7.365 0 11.048 3.725 11.048 11.175v1.115l-3.012-.154zm29.27-16.714c.128 1.603.237 3.295.327 5.078.089 1.782.134 3.257.134 4.424v33.698h6.08v-22.158a19.29 19.29 0 011.918-9.232 14.657 14.657 0 014.182-4.982 11.208 11.208 0 014.392-2.097 23.408 23.408 0 012.57-.365c4.476 0 7.545 1.282 9.207 3.847a20.316 20.316 0 012.494 11.04v23.947h6.08v-27.428a18.058 18.058 0 00-3.951-12.502c-2.647-2.873-6.733-4.309-12.257-4.309a15.942 15.942 0 00-4.277.597 19.08 19.08 0 00-4.105 1.654 16.99 16.99 0 00-3.548 2.481 14.164 14.164 0 00-2.571 3.231h-.191v-3.462a26.44 26.44 0 00-.231-3.462h-6.253zm63.854 14.637a16.89 16.89 0 013.414-5.27 16.511 16.511 0 015.063-3.597 14.875 14.875 0 016.311-1.346 16.75 16.75 0 016.809 1.346 15.581 15.581 0 015.16 3.597 15.396 15.396 0 013.222 5.27 18.44 18.44 0 011.113 6.424 16.852 16.852 0 01-1.151 6.828 14.694 14.694 0 01-3.549 5.213 16.853 16.853 0 01-11.508 4.577c-2.177.02-4.331-.44-6.311-1.346a16.466 16.466 0 01-5.063-3.597 16.853 16.853 0 01-3.415-5.27 17.185 17.185 0 010-12.829h-.095zm-6.867 42.027a26.74 26.74 0 009.207 6.558 29.501 29.501 0 0011.508 2.116 26.77 26.77 0 0011.777-2.212 19.41 19.41 0 007.04-5.539 18.518 18.518 0 003.414-7.29c.563-2.455.859-4.963.882-7.482v-42.815h-6.08v7.193h-.192a19.954 19.954 0 00-8.248-6.655 19.406 19.406 0 00-4.335-1.288 24.545 24.545 0 00-4.104-.366 22.199 22.199 0 00-8.785 1.712 20.55 20.55 0 00-6.905 4.751 22.55 22.55 0 00-4.565 7.117 23 23 0 00-1.65 8.77 21.924 21.924 0 001.745 8.771 21.029 21.029 0 004.796 6.963 22.334 22.334 0 007.135 4.578 23.182 23.182 0 008.785 1.654 22.092 22.092 0 008.938-1.924 16.605 16.605 0 007.174-6.27h.192v7.694a24.19 24.19 0 01-.883 6.597 14.059 14.059 0 01-2.839 5.443 13.58 13.58 0 01-5.198 3.655 20.42 20.42 0 01-7.825 1.346 20.794 20.794 0 01-9.591-2.173 19.421 19.421 0 01-6.943-5.771l-4.45 4.867zm68.399-38.469c.003-1.799.43-3.571 1.246-5.174a15.507 15.507 0 013.319-4.423 16.074 16.074 0 014.833-3.097 14.682 14.682 0 015.755-1.154 13.626 13.626 0 0110.319 3.847 13.854 13.854 0 013.625 10.001h-29.097zm35.714 4.982v-2.693a25.057 25.057 0 00-1.381-8.347 19.964 19.964 0 00-4.008-6.828 19.407 19.407 0 00-6.445-4.674 21.05 21.05 0 00-8.747-1.751 21.38 21.38 0 00-8.554 1.712 21.102 21.102 0 00-6.905 4.751 21.893 21.893 0 00-4.604 7.194 24.186 24.186 0 00-1.649 9.04c-.03 3.096.55 6.168 1.707 9.04a22.491 22.491 0 004.642 7.193 20.788 20.788 0 007.039 4.751 22.958 22.958 0 008.881 1.712 23.78 23.78 0 009.993-2.116 23.362 23.362 0 008.516-7.02l-4.699-3.847a16.875 16.875 0 01-5.39 5.212 15.313 15.313 0 01-8.42 2.27 14.849 14.849 0 01-5.985-1.193 15.9 15.9 0 01-8.286-8.213 18.537 18.537 0 01-1.573-6.097l35.868-.096z" fill="#fff"/><path d="M90.758 341.188h15.459V274.35h.25l42.965 66.838h19.641v-87.149h-15.479v64.742h-.23l-42.198-64.742H90.758v87.149zm103.001-24.619a41.537 41.537 0 009.505 14.34 41.388 41.388 0 0014.49 9.241 50.682 50.682 0 0018.471 3.27 51.676 51.676 0 0018.663-3.501 43.71 43.71 0 0014.616-9.425 42.618 42.618 0 009.59-14.406 48.5 48.5 0 003.357-18.599 50.126 50.126 0 00-3.433-18.965 42.317 42.317 0 00-9.591-14.522 40.809 40.809 0 00-14.616-9.175 51.551 51.551 0 00-18.663-3.019 50.685 50.685 0 00-18.471 3.269 41.701 41.701 0 00-14.481 9.29 42.67 42.67 0 00-9.591 14.58 50.614 50.614 0 00-3.222 19.042 48.477 48.477 0 003.433 18.58h-.057zm14.922-31.756a30.175 30.175 0 016.081-9.905 27.918 27.918 0 019.398-6.655 30.026 30.026 0 0112.257-2.404 30.479 30.479 0 0112.276 2.404 27.804 27.804 0 019.456 6.655 30.243 30.243 0 016.08 9.905 34.117 34.117 0 012.072 12.137 37.61 37.61 0 01-2.148 12.925 30.411 30.411 0 01-6.081 10.214 28.1 28.1 0 01-9.456 6.77 29.8 29.8 0 01-12.276 2.462 29.365 29.365 0 01-12.218-2.462 28.257 28.257 0 01-9.399-6.77 30.34 30.34 0 01-6.08-10.214 37.557 37.557 0 01-2.129-12.925 34.077 34.077 0 012.148-12.194l.019.057zm111 56.375h14.232l20.14-66.357h.25l20.216 66.357h14.731l25.28-87.149h-15.709l-17.071 62.78h-.249l-19.181-62.78h-15.229l-19.546 62.78h-.249l-16.323-62.78H293.96l25.721 87.149z" fill="#00C26F"/></svg>
