<?xml version="1.0" encoding="UTF-8" standalone="no"?>
<svg
   viewBox="0 0 400 200.00001"
   width="400"
   height="200"
   version="1.1"
   id="svg24089"
   sodipodi:docname="Flashift_ newLogowhite.svg"
   inkscape:version="1.1 (c68e22c387, 2021-05-23)"
   inkscape:export-filename="D:\Documents\Crypto Exchanger aggregator\App Icon\Flashift_ Logo400.png"
   inkscape:export-xdpi="96"
   inkscape:export-ydpi="96"
   xmlns:inkscape="http://www.inkscape.org/namespaces/inkscape"
   xmlns:sodipodi="http://sodipodi.sourceforge.net/DTD/sodipodi-0.dtd"
   xmlns="http://www.w3.org/2000/svg"
   xmlns:svg="http://www.w3.org/2000/svg"
   xmlns:rdf="http://www.w3.org/1999/02/22-rdf-syntax-ns#"
   xmlns:cc="http://creativecommons.org/ns#"
   xmlns:dc="http://purl.org/dc/elements/1.1/">
  <metadata
     id="metadata24093">
    <rdf:RDF>
      <cc:Work
         rdf:about="">
        <dc:format>image/svg+xml</dc:format>
        <dc:type
           rdf:resource="http://purl.org/dc/dcmitype/StillImage" />
      </cc:Work>
    </rdf:RDF>
  </metadata>
  <sodipodi:namedview
     pagecolor="#ffffff"
     bordercolor="#666666"
     borderopacity="1"
     objecttolerance="10"
     gridtolerance="10"
     guidetolerance="10"
     inkscape:pageopacity="1"
     inkscape:pageshadow="2"
     inkscape:window-width="1366"
     inkscape:window-height="705"
     id="namedview24091"
     showgrid="false"
     inkscape:zoom="0.7919619"
     inkscape:cx="188.77171"
     inkscape:cy="114.27317"
     inkscape:window-x="-8"
     inkscape:window-y="-8"
     inkscape:window-maximized="1"
     inkscape:current-layer="g24085"
     inkscape:document-rotation="0"
     showguides="true"
     inkscape:guide-bbox="true"
     inkscape:pagecheckerboard="0"
     height="60.0004px" />
  <defs
     id="defs24067">
    <rect
       x="-24.107073"
       y="-20.535654"
       width="248.65999"
       height="105.80326"
       id="rect24218" />
    <rect
       x="3.571418"
       y="2.6785636"
       width="191.96373"
       height="53.124844"
       id="rect24208" />
    <marker
       id="DistanceX"
       orient="auto"
       refX="0"
       refY="0"
       style="overflow:visible">
      <path
         d="M 3,-3 -3,3 M 0,-5 V 5"
         style="stroke:#000000;stroke-width:0.5"
         id="path24054" />
    </marker>
    <pattern
       id="Hatch"
       patternUnits="userSpaceOnUse"
       width="8"
       height="8"
       x="0"
       y="0">
      <path
         d="M8 4 l-4,4"
         stroke="#000000"
         stroke-width="0.25"
         linecap="square"
         id="path24057" />
      <path
         d="M6 2 l-4,4"
         stroke="#000000"
         stroke-width="0.25"
         linecap="square"
         id="path24059" />
      <path
         d="M4 0 l-4,4"
         stroke="#000000"
         stroke-width="0.25"
         linecap="square"
         id="path24061" />
    </pattern>
    <symbol
       id="*Model_Space" />
    <symbol
       id="*Paper_Space" />
    <symbol
       id="*Paper_Space0" />
  </defs>
  <g
     inkscape:groupmode="layer"
     inkscape:label="0"
     id="g24085">
    <text
       xml:space="preserve"
       id="text24206"
       style="font-style:normal;font-weight:normal;font-size:42.6667px;line-height:1.25;font-family:sans-serif;white-space:pre;shape-inside:url(#rect24208);fill:#000000;fill-opacity:1;stroke:none" />
    <g
       aria-label="FLA"
       transform="matrix(2.1763744,0,0,2.1763744,52.747077,73.875943)"
       id="text24216"
       style="font-size:50.6667px;line-height:1.25;font-family:Impact;-inkscape-font-specification:Impact;white-space:pre;shape-inside:url(#rect24218);fill:#ffffff">
      <path
         d="m -22.029296,-9.8670343 h 17.6393344 v 8.0156301 h -7.2239624 v 7.5950568 h 6.4322952 v 7.6197964 h -6.4322952 v 16.822927 h -10.415372 z"
         style="shape-inside:url(#rect24218);fill:#ffffff"
         id="path926" />
      <path
         d="M 8.5488487,-9.8670343 V 22.170746 h 6.3333373 v 8.01563 H -1.8665224 V -9.8670343 Z"
         style="shape-inside:url(#rect24218);fill:#ffffff"
         id="path928" />
      <path
         d="M 36.653033,-9.8670343 42.615276,30.186376 H 31.952509 l -0.519532,-7.199223 h -3.735679 l -0.61849,7.199223 H 16.292343 L 21.586617,-9.8670343 Z M 31.136102,15.886888 Q 30.344435,9.0834985 29.552768,-0.91129947 27.969434,10.567874 27.5736,15.886888 Z"
         style="shape-inside:url(#rect24218);fill:#ffffff"
         id="path930" />
    </g>
    <g
       aria-label="IFT"
       id="text24230"
       style="font-size:50.6667px;line-height:1.25;font-family:Impact;-inkscape-font-specification:Impact;fill:#ffffff"
       transform="matrix(2.1763744,0,0,2.1763744,-38.077421,31.807758)">
      <path
         d="M 153.86459,9.3916921 V 49.445103 H 143.44922 V 9.3916921 Z"
         style="font-size:50.6667px;fill:#ffffff"
         id="path919" />
      <path
         d="m 158.04558,9.3916921 h 17.63934 v 8.0156299 h -7.22397 v 7.595057 h 6.4323 v 7.619796 h -6.4323 v 16.822928 h -10.41537 z"
         style="font-size:50.6667px;fill:#ffffff"
         id="path921" />
      <path
         d="m 199.18754,9.3916921 v 8.0156299 h -6.1849 V 49.445103 H 182.58727 V 17.407322 h -6.16016 V 9.3916921 Z"
         style="font-size:50.6667px;fill:#ffffff"
         id="path923" />
    </g>
    <path
       d="m 171.15599,119.76886 h -16.22295 v 23.43483 l 16.22295,6.52251 z"
       style="fill:#f39c11;fill-opacity:1;stroke:#f39c11;stroke-width:0.138009;stroke-opacity:1"
       id="path4293" />
    <path
       d="m 171.15582,41.142551 -16.22295,6.522663 v 63.992216 h 50.92697 a 4.0557329,4.0557329 0 0 1 2.02234,7.57129 l -28.61484,16.46076 v 14.03672 l 55.49478,-31.92354 A 9.7337591,9.7337591 0 0 0 230.1632,99.490058 h -50.8958 a 8.1114661,8.1114661 0 0 1 -8.11147,-8.111417 z"
       style="fill:#f39c11;fill-opacity:1;stroke:#f39c11;stroke-width:0.138009;stroke-opacity:1"
       id="path4295" />
    <path
       d="M 240.10331,55.179382 V 41.142664 l -55.4946,31.923445 a 9.7337591,9.7337591 0 0 0 4.5989,18.31259 h 50.89577 a 8.1114661,8.1114661 0 0 1 8.1115,8.111447 v 50.236174 l 16.2229,-6.52263 V 79.211454 h -50.92693 a 4.0557329,4.0557329 0 0 1 -2.02238,-7.571294 z"
       style="fill:#f39c11;fill-opacity:1;stroke:#f39c11;stroke-width:0.138009;stroke-opacity:1"
       id="path4297" />
    <path
       d="m 264.4377,47.665338 -16.22295,-6.522527 v 29.698467 l 16.22293,-2.3e-5 z"
       style="fill:#f39c11;fill-opacity:1;stroke:#f39c11;stroke-width:0.138009;stroke-opacity:1"
       id="path4299" />
  </g>
  <desc
     id="desc24087">logo5.dxf - scale = 124.819870, origin = (24.200847, 17.891299), method = auto</desc>
</svg>
