<svg width="154" height="48" viewBox="0 0 154 48" fill="none" xmlns="http://www.w3.org/2000/svg">
<rect width="153.6" height="48" rx="4" transform="matrix(-1 0 0 1 153.6 0)" fill="url(#paint0_linear_agp)"/>
<path fill-rule="evenodd" clip-rule="evenodd" d="M83.0238 40.0946C82.4161 39.6085 81.93 38.7578 81.687 38.2717L83.6314 37.421C83.753 37.664 83.996 38.0286 84.2391 38.3932C84.7252 38.8793 85.4544 39.3654 86.1835 39.3654C86.9127 39.3654 87.7634 39.0008 88.2495 38.3932C88.6141 37.7855 88.8572 37.1779 88.8572 36.3272V35.598C87.3988 37.421 84.3606 37.1779 82.6592 35.2334C80.8362 33.289 80.8362 30.0077 82.6592 28.0632C84.4821 26.2403 87.1558 25.9972 88.7356 27.6986V26.8479H90.8016V35.9626C90.8016 38.2717 89.9509 39.6085 88.8572 40.4592C88.128 41.0668 87.0342 41.3099 86.062 41.3099C84.9683 41.1884 83.8745 40.8238 83.0238 40.0946ZM133.944 40.5807L136.01 35.7196L132.365 27.3341H134.431L136.983 33.289L139.535 27.3341H141.601L136.01 40.5807H133.944ZM124.101 35.9626C123.493 35.355 123.25 34.5043 123.25 33.6536C123.25 32.9244 123.493 32.1952 123.979 31.7091C124.83 30.8584 126.045 30.4938 127.382 30.4938C128.233 30.4938 128.962 30.6153 129.569 30.9799C129.569 29.5216 128.354 28.9139 127.382 28.9139C126.531 28.9139 125.68 29.4 125.316 30.2507L123.493 29.5216C123.858 28.6709 124.83 27.091 127.26 27.091C128.476 27.091 129.691 27.4556 130.42 28.3063C131.149 29.157 131.392 30.1292 131.392 31.466V36.5703H129.326V35.7196C129.083 36.0841 128.597 36.3272 128.233 36.5703C127.746 36.8133 127.139 36.9348 126.531 36.9348C125.802 36.8133 124.708 36.5703 124.101 35.9626ZM59.3256 31.5876C59.3256 29.157 61.1486 26.4833 64.4298 26.4833C67.5896 26.4833 69.5341 29.157 69.5341 31.5876C69.5341 34.0181 67.7111 36.6918 64.4298 36.6918C61.1486 36.6918 59.3256 34.0181 59.3256 31.5876ZM70.2632 31.5876C70.2632 29.157 72.0862 26.4833 75.3675 26.4833C78.5272 26.4833 80.4717 29.157 80.4717 31.5876C80.4717 34.0181 78.6487 36.6918 75.3675 36.6918C72.2077 36.6918 70.2632 34.0181 70.2632 31.5876ZM45.5928 34.2612C42.5546 31.223 42.6761 26.2403 45.7144 23.0805C47.2942 21.5007 49.2387 20.7715 51.3047 20.7715C53.2492 20.7715 55.1936 21.5007 56.652 22.959L55.1936 24.5389C53.0061 22.3514 49.4818 22.4729 47.4158 24.6604C45.2283 26.9695 45.2283 30.4938 47.4158 32.8029C49.6033 35.1119 53.2492 35.2334 55.4367 32.9244C56.1659 32.1952 56.4089 31.223 56.5305 30.2507H51.4262V28.0632H58.5964C58.718 28.5493 58.718 29.157 58.718 29.7646C58.718 31.5876 57.9888 33.4105 56.7735 34.6258C55.4367 35.9626 53.4922 36.6918 51.5478 36.6918C49.3602 36.5703 47.1727 35.8411 45.5928 34.2612ZM96.9996 35.1119C95.1767 33.1674 95.1767 29.8862 96.9996 27.8202C98.8226 25.8757 101.861 25.8757 103.562 27.8202C104.17 28.4278 104.534 29.2785 104.899 30.1292L98.2149 32.9244C98.5795 33.7751 99.4302 34.5043 100.645 34.5043C101.739 34.5043 102.468 34.1397 103.198 33.0459L105.021 34.2612C104.777 34.5043 104.534 34.7473 104.413 34.9904C102.347 37.0564 98.8226 37.0564 96.9996 35.1119ZM109.639 36.5703V23.0805H114.014C116.566 23.0805 118.632 24.9035 118.632 27.091C118.632 29.2785 116.809 31.1015 114.5 31.1015H111.826V36.4487H109.639V36.5703ZM119.847 36.5703V23.0805H121.913V36.5703H119.847ZM92.3815 36.3272V21.2576H94.569V36.3272H92.3815ZM129.448 32.5598C128.962 32.1952 128.233 32.0737 127.503 32.0737C126.045 32.0737 125.194 32.8029 125.194 33.6536C125.194 34.5043 126.045 34.9904 126.896 34.9904C128.111 34.9904 129.448 34.0181 129.448 32.5598ZM67.225 31.5876C67.225 30.1292 66.2528 28.5493 64.4298 28.5493C62.6069 28.5493 61.6347 30.1292 61.6347 31.5876C61.6347 33.0459 62.6069 34.6258 64.4298 34.6258C66.1312 34.6258 67.225 33.0459 67.225 31.5876ZM78.1626 31.5876C78.1626 30.1292 77.1904 28.5493 75.3675 28.5493C73.5445 28.5493 72.5723 30.1292 72.5723 31.5876C72.5723 33.0459 73.5445 34.6258 75.3675 34.6258C77.1904 34.6258 78.1626 33.0459 78.1626 31.5876ZM88.9787 32.4383C88.9787 32.3167 88.9787 32.1952 89.1002 32.0737C89.1002 31.9522 89.1002 31.7091 89.1002 31.5876C89.1002 31.466 89.1002 31.223 89.1002 31.1015V30.9799C89.1002 30.8584 88.9787 30.6153 88.9787 30.4938C88.6141 29.2785 87.5203 28.4278 86.4266 28.4278C84.9682 28.4278 83.753 29.8862 83.753 31.466C83.753 33.1674 84.9682 34.5043 86.5481 34.5043C87.5204 34.6258 88.4926 33.7751 88.9787 32.4383ZM97.8503 31.3445L102.347 29.4C101.861 28.5493 101.132 28.3063 100.524 28.3063C98.701 28.4278 97.6072 30.3723 97.8503 31.3445ZM116.444 27.2125C116.444 25.9972 115.472 25.1465 114.135 25.1465H111.705V29.4H114.257C115.472 29.4 116.444 28.4278 116.444 27.2125Z" fill="white"/>
<path fill-rule="evenodd" clip-rule="evenodd" d="M135.526 38.1511H135.403V38.0283H135.526H135.403V38.1511H135.526Z" fill="white"/>
<path fill-rule="evenodd" clip-rule="evenodd" d="M135.77 38.1511C135.77 38.0283 135.77 38.0283 135.77 38.1511C135.647 38.0283 135.647 38.0283 135.77 38.1511C135.647 38.1511 135.647 38.1511 135.77 38.1511ZM135.77 38.0283C135.77 38.1511 135.77 38.1511 135.77 38.0283C135.77 38.1511 135.647 38.1511 135.77 38.0283C135.647 38.0283 135.77 38.0283 135.77 38.0283Z" fill="white"/>
<path fill-rule="evenodd" clip-rule="evenodd" d="M135.889 38.0283H135.767H135.889V38.1511V38.0283Z" fill="white"/>
<path opacity="0.7" d="M43.501 13.9501C43.501 11.9949 45.0463 10.8 46.9482 10.8C48.2557 10.8 49.0878 11.3432 49.6821 12.1035L48.7312 12.6466C48.3746 12.2121 47.7802 11.8863 46.9482 11.8863C45.6406 11.8863 44.6897 12.7552 44.6897 14.0587C44.6897 15.3621 45.6406 16.2311 46.9482 16.2311C47.6614 16.2311 48.2557 15.9052 48.4934 15.688V14.7104H46.5916V13.7328H49.801V16.0139C49.2066 16.6656 48.2557 17.1001 47.067 17.1001C45.0463 17.1001 43.501 15.7966 43.501 13.9501Z" fill="#7F8891"/>
<path opacity="0.7" d="M50.7002 16.9893V10.7998H55.2002V11.7945H51.766V13.3419H55.0818V14.3367H51.766V16.1051H55.2002V17.0998L50.7002 16.9893Z" fill="#7F8891"/>
<path opacity="0.7" d="M58.187 17.0998V11.8123H56.1006V10.7998H61.5006V11.8123H59.4142V17.0998H58.187Z" fill="#7F8891"/>
<path opacity="0.7" d="M65.1006 17.0998V10.7998H66.0006V17.0998H65.1006Z" fill="#7F8891"/>
<path opacity="0.7" d="M68.9868 17.0998V11.8123H66.9004V10.7998H72.3004V11.8123H70.214V17.0998H68.9868Z" fill="#7F8891"/>
<path opacity="0.7" d="M75.9004 13.9498C75.9004 12.1033 77.2039 10.7998 79.0504 10.7998C80.897 10.7998 82.2004 12.1033 82.2004 13.9498C82.2004 15.7964 80.897 17.0998 79.0504 17.0998C77.2039 17.0998 75.9004 15.6877 75.9004 13.9498ZM81.0056 13.9498C81.0056 12.6464 80.2452 11.7774 78.9418 11.7774C77.7469 11.7774 76.878 12.755 76.878 13.9498C76.878 15.2533 77.6383 16.1222 78.9418 16.1222C80.2452 16.1222 81.0056 15.1446 81.0056 13.9498Z" fill="#7F8891"/>
<path opacity="0.7" d="M87.3986 17.0998L84.2026 12.5998V17.0998H83.1006V10.7998H84.2026L87.3986 15.1873V10.7998H88.5006V17.0998H87.3986Z" fill="#7F8891"/>
<path d="M12.2811 12.8958C12.0703 13.1475 12 13.567 12 14.0705V32.615C12 33.1185 12.1406 33.5381 12.3514 33.7898L12.4217 33.8737L21.1367 23.4686V23.3008L12.2811 12.8958Z" fill="white"/>
<path d="M23.9499 26.9926L21.0684 23.5522V23.3005L23.9499 19.8601L24.0202 19.944L27.4641 22.2936C28.448 22.9648 28.448 24.0557 27.4641 24.727L23.9499 26.9926Z" fill="white"/>
<path d="M24.0184 26.9086L21.0665 23.3843L12.2812 33.8733C12.6327 34.2928 13.1246 34.2928 13.7572 33.9572L24.0184 26.9086Z" fill="white"/>
<path d="M24.0204 19.8609L13.7591 12.8962C13.1266 12.4766 12.6346 12.5606 12.2832 12.9801L21.0685 23.3852L24.0204 19.8609Z" fill="white"/>
<path opacity="0.2" d="M12.2811 33.7054C12.0703 33.4537 12 33.0341 12 32.5307V32.6146C12 33.118 12.1406 33.5376 12.3514 33.7893V33.7054H12.2811ZM27.4621 24.4751L23.948 26.8247L24.0183 26.9086L27.4621 24.559C27.9541 24.2234 28.1649 23.8038 28.1649 23.3843C28.1649 23.8038 27.8838 24.1395 27.4621 24.4751Z" fill="white"/>
<path opacity="0.2" d="M13.7571 12.9798L27.4621 22.294C27.8838 22.6297 28.1649 22.9653 28.1649 23.3849C28.1649 22.9653 27.9541 22.5458 27.4621 22.2101L13.7571 12.8959C12.7731 12.2246 12 12.7281 12 14.0707V14.1546C12 12.8959 12.7731 12.3085 13.7571 12.9798Z" fill="white"/>
<defs>
<linearGradient id="paint0_linear_agp" x1="-14.0387" y1="53.5135" x2="164.67" y2="-44.6781" gradientUnits="userSpaceOnUse">
<stop stop-color="#2A2F34"/>
<stop offset="1" stop-color="#1F2328"/>
</linearGradient>
</defs>
</svg>
