<svg width="306" height="73" viewBox="0 0 306 73" fill="none" xmlns="http://www.w3.org/2000/svg"><path d="M296 0C301.523 0 306 4.47715 306 10V63C306 68.5229 301.523 73 296 73H54.0703C67.6381 66.4568 77 52.5719 77 36.5C77 20.4281 67.6381 6.54319 54.0703 0H296ZM156.822 45.6963C155.958 45.6963 155.162 45.8408 154.437 46.1289C153.711 46.4063 153.076 46.8064 152.532 47.3291C151.988 47.8413 151.566 48.4501 151.268 49.1543C150.969 49.8584 150.819 50.6269 150.819 51.459C150.819 52.2911 150.969 53.0595 151.268 53.7637C151.566 54.4679 151.983 55.0817 152.517 55.6045C153.061 56.1165 153.695 56.5167 154.421 56.8047C155.157 57.0821 155.952 57.2207 156.806 57.2207C157.734 57.2207 158.577 57.0603 159.335 56.7402C160.092 56.4201 160.732 55.9558 161.255 55.3477L159.911 54.0674C159.506 54.5155 159.052 54.8521 158.551 55.0762C158.049 55.2896 157.505 55.3955 156.918 55.3955C156.331 55.3955 155.793 55.2994 155.302 55.1074C154.822 54.9154 154.4 54.644 154.037 54.292C153.685 53.9399 153.407 53.5231 153.204 53.043C153.012 52.563 152.916 52.0349 152.916 51.459C152.916 50.8828 153.012 50.3542 153.204 49.874C153.407 49.3939 153.685 48.9781 154.037 48.626C154.4 48.2739 154.822 48.0016 155.302 47.8096C155.793 47.6176 156.331 47.5215 156.918 47.5215C157.505 47.5215 158.049 47.6334 158.551 47.8574C159.052 48.0708 159.506 48.3966 159.911 48.834L161.255 47.5693C160.732 46.9506 160.092 46.4862 159.335 46.1768C158.577 45.8567 157.74 45.6963 156.822 45.6963ZM106.111 48.418C105.237 48.418 104.458 48.6043 103.775 48.9775C103.092 49.351 102.553 49.8687 102.158 50.5303C101.763 51.1812 101.566 51.9335 101.566 52.7871C101.566 53.6301 101.763 54.3824 102.158 55.0439C102.553 55.7055 103.092 56.2282 103.775 56.6123C104.458 56.9856 105.237 57.1728 106.111 57.1729C106.997 57.1729 107.782 56.9858 108.465 56.6123C109.158 56.2282 109.697 55.7054 110.081 55.0439C110.476 54.3824 110.673 53.6301 110.673 52.7871C110.673 51.9229 110.476 51.1655 110.081 50.5146C109.697 49.8638 109.158 49.351 108.465 48.9775C107.782 48.6041 106.997 48.418 106.111 48.418ZM123.993 48.418C123.118 48.418 122.339 48.6042 121.656 48.9775C120.973 49.351 120.434 49.8687 120.039 50.5303C119.644 51.1811 119.447 51.9336 119.447 52.7871C119.447 53.63 119.644 54.3824 120.039 55.0439C120.434 55.7055 120.973 56.2282 121.656 56.6123C122.339 56.9857 123.118 57.1729 123.993 57.1729C124.879 57.1728 125.663 56.9857 126.346 56.6123C127.039 56.2282 127.578 55.7054 127.962 55.0439C128.357 54.3824 128.555 53.6301 128.555 52.7871C128.555 51.9229 128.357 51.1655 127.962 50.5146C127.578 49.8638 127.039 49.351 126.346 48.9775C125.663 48.6041 124.879 48.418 123.993 48.418ZM163.9 54.5156C163.538 54.5156 163.228 54.6384 162.972 54.8838C162.716 55.1184 162.588 55.4386 162.588 55.8438C162.588 56.2278 162.716 56.5486 162.972 56.8047C163.228 57.0501 163.538 57.1729 163.9 57.1729C164.263 57.1728 164.573 57.0501 164.829 56.8047C165.085 56.5486 165.213 56.2278 165.213 55.8438C165.213 55.4386 165.085 55.1184 164.829 54.8838C164.573 54.6384 164.263 54.5156 163.9 54.5156ZM170.948 48.418C170.052 48.418 169.252 48.6042 168.548 48.9775C167.854 49.351 167.31 49.8687 166.915 50.5303C166.52 51.1812 166.323 51.9335 166.323 52.7871C166.323 53.6301 166.52 54.3824 166.915 55.0439C167.31 55.7055 167.854 56.2282 168.548 56.6123C169.252 56.9857 170.052 57.1728 170.948 57.1729C171.781 57.1729 172.512 57.0016 173.142 56.6602C173.782 56.308 174.267 55.812 174.598 55.1719L173.062 54.2754C172.806 54.6808 172.491 54.9798 172.117 55.1719C171.754 55.3639 171.359 55.4599 170.933 55.46C170.442 55.46 169.998 55.3531 169.604 55.1396C169.209 54.9263 168.9 54.6222 168.676 54.2275C168.452 53.8221 168.34 53.342 168.34 52.7871C168.34 52.2323 168.452 51.7571 168.676 51.3623C168.9 50.9571 169.209 50.6479 169.604 50.4346C169.998 50.2212 170.442 50.1143 170.933 50.1143C171.359 50.1143 171.754 50.2103 172.117 50.4023C172.491 50.5944 172.806 50.8935 173.062 51.2988L174.598 50.4023C174.267 49.7516 173.782 49.2605 173.142 48.9297C172.512 48.5882 171.781 48.418 170.948 48.418ZM180.043 48.418C179.168 48.418 178.39 48.6043 177.707 48.9775C177.024 49.351 176.485 49.8687 176.09 50.5303C175.695 51.1811 175.498 51.9335 175.498 52.7871C175.498 53.63 175.695 54.3824 176.09 55.0439C176.485 55.7055 177.024 56.2282 177.707 56.6123C178.39 56.9856 179.168 57.1728 180.043 57.1729C180.929 57.1729 181.714 56.9858 182.396 56.6123C183.09 56.2282 183.629 55.7054 184.013 55.0439C184.408 54.3824 184.605 53.6301 184.605 52.7871C184.605 51.9229 184.407 51.1655 184.013 50.5146C183.629 49.8638 183.09 49.351 182.396 48.9775C181.714 48.6041 180.929 48.418 180.043 48.418ZM89.5049 45.8564V57.0605H91.5693V49.4736L97.748 57.0605H99.46V45.8564H97.3955V53.4414L91.2178 45.8564H89.5049ZM110.15 45.8564V47.6172H113.863V57.0605H115.944V47.6172H119.657V45.8564H110.15ZM130.66 45.8564V57.0605H132.74V54.1904L134.524 52.3643L138.471 57.0605H140.903L135.902 50.8623L140.163 46.335L144.275 53.1377V57.0605H146.356V53.1123L150.742 45.8564H148.693L145.382 51.3066L142.099 45.8564H138.278L132.74 51.6055V45.8564H130.66ZM197.306 48.418C196.463 48.418 195.721 48.61 195.081 48.9941C194.687 49.2306 194.361 49.5151 194.104 49.8486C193.898 49.5081 193.634 49.2272 193.305 49.0098C192.718 48.615 192.024 48.418 191.224 48.418C190.519 48.418 189.89 48.5615 189.335 48.8496C188.974 49.0406 188.671 49.2914 188.423 49.5996V48.5137H186.519V57.0605H188.519V52.7227C188.519 52.1467 188.61 51.6722 188.791 51.2988C188.983 50.9254 189.244 50.6423 189.575 50.4502C189.917 50.2582 190.306 50.1622 190.743 50.1621C191.362 50.1621 191.837 50.3492 192.168 50.7227C192.499 51.0961 192.664 51.6614 192.664 52.4189V57.0605H194.665V52.7227C194.665 52.1467 194.756 51.6722 194.938 51.2988C195.13 50.9254 195.391 50.6423 195.722 50.4502C196.063 50.2583 196.452 50.1621 196.89 50.1621C197.509 50.1621 197.984 50.3492 198.314 50.7227C198.645 51.0961 198.811 51.6615 198.811 52.4189V57.0605H200.812V52.1631C200.812 51.2988 200.662 50.594 200.363 50.0498C200.065 49.495 199.648 49.0841 199.114 48.8174C198.591 48.5507 197.988 48.418 197.306 48.418ZM106.128 50.1143C106.608 50.1143 107.04 50.2212 107.424 50.4346C107.808 50.6479 108.107 50.957 108.32 51.3623C108.544 51.7571 108.656 52.2323 108.656 52.7871C108.656 53.3313 108.544 53.8064 108.32 54.2119C108.107 54.6172 107.808 54.9263 107.424 55.1396C107.04 55.353 106.602 55.46 106.111 55.46C105.631 55.4599 105.199 55.353 104.815 55.1396C104.442 54.9263 104.143 54.6173 103.919 54.2119C103.695 53.8064 103.583 53.3313 103.583 52.7871C103.583 52.2323 103.695 51.7571 103.919 51.3623C104.143 50.9569 104.442 50.6479 104.815 50.4346C105.2 50.2212 105.637 50.1143 106.128 50.1143ZM124.009 50.1143C124.489 50.1143 124.922 50.2212 125.306 50.4346C125.689 50.6479 125.988 50.9572 126.201 51.3623C126.425 51.7571 126.538 52.2323 126.538 52.7871C126.538 53.3313 126.425 53.8064 126.201 54.2119C125.988 54.617 125.689 54.9263 125.306 55.1396C124.922 55.353 124.484 55.4599 123.993 55.46C123.513 55.46 123.08 55.3531 122.696 55.1396C122.323 54.9263 122.024 54.6172 121.8 54.2119C121.576 53.8064 121.464 53.3313 121.464 52.7871C121.464 52.2323 121.576 51.7571 121.8 51.3623C122.024 50.957 122.323 50.648 122.696 50.4346C123.08 50.2212 123.518 50.1143 124.009 50.1143ZM180.06 50.1143C180.54 50.1143 180.971 50.2213 181.355 50.4346C181.74 50.6479 182.039 50.957 182.252 51.3623C182.476 51.7571 182.588 52.2323 182.588 52.7871C182.588 53.3313 182.476 53.8064 182.252 54.2119C182.039 54.6172 181.739 54.9263 181.355 55.1396C180.971 55.353 180.534 55.46 180.043 55.46C179.563 55.4599 179.131 55.353 178.747 55.1396C178.374 54.9263 178.075 54.6173 177.851 54.2119C177.627 53.8064 177.515 53.3313 177.515 52.7871C177.515 52.2323 177.627 51.7571 177.851 51.3623C178.075 50.9569 178.374 50.6479 178.747 50.4346C179.131 50.2212 179.569 50.1143 180.06 50.1143ZM137.828 15.5449C136.273 15.545 134.842 15.8047 133.536 16.3232C132.23 16.8226 131.087 17.5423 130.107 18.4834C129.128 19.4053 128.369 20.5 127.831 21.7676C127.293 23.0352 127.024 24.4189 127.024 25.917C127.024 27.4149 127.293 28.7979 127.831 30.0654C128.369 31.3328 129.118 32.4369 130.078 33.3779C131.058 34.2998 132.201 35.0205 133.507 35.5391C134.832 36.0384 136.263 36.2881 137.8 36.2881C139.471 36.2881 140.988 36 142.352 35.4238C143.715 34.8476 144.867 34.0118 145.809 32.917L143.389 30.6123C142.659 31.4189 141.843 32.0244 140.94 32.4277C140.038 32.8119 139.057 33.0039 138.001 33.0039C136.945 33.0039 135.975 32.831 135.092 32.4854C134.228 32.1396 133.468 31.6494 132.815 31.0156C132.182 30.3818 131.682 29.6328 131.317 28.7686C130.972 27.9044 130.799 26.9539 130.799 25.917C130.799 24.8799 130.972 23.9287 131.317 23.0645C131.682 22.2002 132.182 21.4512 132.815 20.8174C133.468 20.1836 134.228 19.6934 135.092 19.3477C135.975 19.0021 136.945 18.8291 138.001 18.8291C139.057 18.8291 140.038 19.0312 140.94 19.4346C141.843 19.8187 142.659 20.4042 143.389 21.1914L145.809 18.916C144.867 17.802 143.715 16.9662 142.352 16.4092C140.988 15.833 139.48 15.5449 137.828 15.5449ZM249.523 15.5449C247.929 15.5449 246.489 15.9483 245.202 16.7549C243.935 17.5616 242.936 18.7431 242.206 20.2988C241.476 21.8353 241.111 23.7083 241.111 25.917C241.111 28.1256 241.476 30.0078 242.206 31.5635C242.936 33.0999 243.935 34.2715 245.202 35.0781C246.489 35.8847 247.929 36.2881 249.523 36.2881C251.137 36.2881 252.577 35.8847 253.845 35.0781C255.112 34.2715 256.111 33.0999 256.841 31.5635C257.59 30.0078 257.965 28.1256 257.965 25.917C257.965 23.7083 257.59 21.8353 256.841 20.2988C256.111 18.7431 255.112 17.5616 253.845 16.7549C252.577 15.9483 251.137 15.5449 249.523 15.5449ZM180.804 20.4424C179.267 20.4424 177.894 20.7789 176.684 21.4512C175.493 22.1233 174.552 23.0545 173.86 24.2451C173.188 25.4167 172.853 26.7711 172.853 28.3076C172.853 29.8249 173.198 31.1793 173.89 32.3701C174.6 33.5607 175.589 34.502 176.856 35.1934C178.143 35.8655 179.641 36.2021 181.351 36.2021C182.695 36.2021 183.887 35.9899 184.924 35.5674C185.98 35.1257 186.854 34.5018 187.545 33.6953L185.615 31.4766C185.078 32.0526 184.463 32.4752 183.771 32.7441C183.08 33.013 182.302 33.1475 181.438 33.1475C180.439 33.1475 179.555 32.9554 178.787 32.5713C178.019 32.1872 177.424 31.6402 177.001 30.9297C176.735 30.4818 176.553 29.9917 176.454 29.46H188.524C188.544 29.2872 188.554 29.105 188.554 28.9131C188.573 28.7212 188.582 28.5481 188.582 28.3945C188.582 26.7812 188.246 25.3783 187.574 24.1875C186.902 22.9969 185.98 22.0749 184.809 21.4219C183.637 20.7689 182.302 20.4424 180.804 20.4424ZM214.678 20.4424C213.141 20.4424 211.768 20.7789 210.558 21.4512C209.367 22.1233 208.426 23.0545 207.734 24.2451C207.062 25.4167 206.727 26.7711 206.727 28.3076C206.727 29.8249 207.072 31.1793 207.764 32.3701C208.474 33.5607 209.463 34.502 210.73 35.1934C212.017 35.8656 213.516 36.2021 215.226 36.2021C216.57 36.2021 217.761 35.9899 218.798 35.5674C219.854 35.1257 220.728 34.5018 221.419 33.6953L219.489 31.4766C218.952 32.0527 218.337 32.4752 217.646 32.7441C216.954 33.013 216.176 33.1475 215.312 33.1475C214.313 33.1474 213.429 32.9554 212.661 32.5713C211.893 32.1872 211.298 31.6402 210.875 30.9297C210.609 30.4818 210.427 29.9917 210.328 29.46H222.398C222.418 29.2872 222.428 29.105 222.428 28.9131C222.447 28.7212 222.456 28.5481 222.456 28.3945C222.456 26.7812 222.12 25.3783 221.448 24.1875C220.776 22.9968 219.854 22.0748 218.683 21.4219C217.511 20.7689 216.176 20.4424 214.678 20.4424ZM90.709 15.833V36H94.4541V30.833L97.665 27.5459L104.768 36H109.146L100.146 24.8428L107.833 16.6768L115.245 28.9404V36H118.991V28.8936L126.885 15.833H123.197L117.237 25.6426L111.327 15.833H104.422L94.4541 26.1807V15.833H90.709ZM157.359 15.833V36H171.649V32.8311H161.104V15.833H157.359ZM189.254 20.6152L195.852 36H199.567L206.165 20.6152H202.708L197.769 32.0186L192.999 20.6152H189.254ZM225.916 14.623V36H229.517V14.623H225.916ZM249.523 18.8008C250.465 18.8008 251.281 19.0596 251.973 19.5781C252.664 20.0775 253.202 20.8558 253.586 21.9121C253.989 22.9492 254.19 24.2846 254.19 25.917C254.19 27.53 253.989 28.8647 253.586 29.9209C253.202 30.9771 252.664 31.7646 251.973 32.2832C251.281 32.7826 250.465 33.0322 249.523 33.0322C248.621 33.0322 247.814 32.7826 247.104 32.2832C246.412 31.7646 245.864 30.9772 245.461 29.9209C245.077 28.8647 244.885 27.53 244.885 25.917C244.885 24.2845 245.077 22.9492 245.461 21.9121C245.864 20.8557 246.412 20.0775 247.104 19.5781C247.814 19.0596 248.621 18.8008 249.523 18.8008ZM180.804 23.3232C181.668 23.3233 182.427 23.5153 183.08 23.8994C183.752 24.2835 184.28 24.8122 184.664 25.4844C184.936 25.9598 185.105 26.4883 185.175 27.0693H176.424C176.503 26.4924 176.664 25.9737 176.914 25.5137C177.298 24.8222 177.817 24.2835 178.47 23.8994C179.142 23.5153 179.92 23.3232 180.804 23.3232ZM214.678 23.3232C215.542 23.3232 216.301 23.5153 216.954 23.8994C217.626 24.2835 218.154 24.8122 218.538 25.4844C218.81 25.9598 218.979 26.4883 219.049 27.0693H210.298C210.377 26.4925 210.538 25.9737 210.788 25.5137C211.172 24.8223 211.691 24.2835 212.344 23.8994C213.016 23.5153 213.794 23.3233 214.678 23.3232Z" fill="white"></path><path d="M36.5 0C56.6584 0 73 16.3416 73 36.5C73 56.6584 56.6584 73 36.5 73C16.3416 73 0 56.6584 0 36.5C0 16.3416 16.3416 0 36.5 0ZM52.25 39.5146C52.2312 39.5153 52.0559 39.6417 51.8584 39.7988C47.5655 43.2637 42.5342 45.2387 37.4854 45.4502C32.5221 45.6616 27.6624 44.2445 23.248 41.3018C22.5281 40.8203 21.758 40.2623 21.1865 39.7988C20.9885 39.6413 20.8129 39.5146 20.7949 39.5146C20.771 39.5163 20.4971 39.7905 20.1875 40.127C18.923 41.4904 18.0322 42.6655 17.1592 44.1279C16.7367 44.8381 16.1615 45.9518 16.1602 46.0576C16.1602 46.2556 17.1051 47.9569 17.7441 48.9199C21.2046 54.1129 26.5821 57.636 32.6436 58.6846C34.1735 58.9456 34.5606 58.9775 36.5225 58.9775C38.4844 58.9775 38.8715 58.9455 40.4014 58.6846C46.4673 57.6361 51.8403 54.1129 55.3008 48.9199C55.9398 47.9569 56.8848 46.2556 56.8848 46.0576C56.8834 45.9518 56.3082 44.8381 55.8857 44.1279C55.2558 43.0705 54.6308 42.1881 53.8613 41.2656C53.3573 40.6536 52.3085 39.5146 52.25 39.5146ZM36.6348 14.0176C36.104 14.0041 35.8114 14.0224 35.6045 14.0674C34.6506 14.2834 33.8275 14.6979 32.9365 15.4043C29.422 18.2033 26.087 25.1784 23.207 35.7354C23.0226 36.4146 22.807 37.2241 22.7305 37.5303L22.5908 38.0928L22.6943 38.1738C23.6393 38.9298 24.7055 39.6548 25.79 40.2803C26.3606 40.6083 28.1154 41.4922 28.1973 41.4951C28.2243 41.4951 28.3642 41.2025 28.5127 40.8516C29.0752 39.5196 30.016 37.6922 30.79 36.4502C31.933 34.6099 33.3864 33.1116 34.6328 32.4951C35.5643 32.0317 36.5632 31.9148 37.5127 32.1533C39.3262 32.6169 41.1401 34.4347 42.9131 37.5576C43.3271 38.2868 44.2037 40.0686 44.5322 40.8516C44.6807 41.2026 44.8207 41.4951 44.8477 41.4951C44.9241 41.4951 46.683 40.6089 47.2549 40.2803C48.3394 39.6548 49.4066 38.9298 50.3516 38.1738L50.4551 38.0928L50.3154 37.5303C49.0645 32.5759 47.3717 27.4868 45.7832 23.9004C43.4927 18.7389 40.964 15.4448 38.498 14.4053C37.7825 14.1038 37.4358 14.0311 36.6348 14.0176Z" fill="white"></path></svg>