<svg width="59" height="51" viewBox="0 0 59 51" fill="none" xmlns="http://www.w3.org/2000/svg"><path d="M50.3387 2.00024H7.66129C4.53465 2.00024 2 4.39364 2 7.34604V40.6544C2 43.6068 4.53465 46.0002 7.66129 46.0002H50.3387C53.4654 46.0002 56 43.6068 56 40.6544V7.34604C56 4.39364 53.4654 2.00024 50.3387 2.00024Z" stroke="#DFDFE3" stroke-width="1.6"></path><path d="M2.52832 12.4579L56 12.5709" stroke="#DFDFE3" stroke-width="1.64562" stroke-linecap="square"></path><path d="M8.41211 8.85046C9.14345 8.85046 9.73633 8.25759 9.73633 7.52624C9.73633 6.7949 9.14345 6.20203 8.41211 6.20203C7.68076 6.20203 7.08789 6.7949 7.08789 7.52624C7.08789 8.25759 7.68076 8.85046 8.41211 8.85046Z" fill="#100E1D"></path><path d="M13.2402 8.85046C13.9716 8.85046 14.5645 8.25759 14.5645 7.52624C14.5645 6.7949 13.9716 6.20203 13.2402 6.20203C12.5089 6.20203 11.916 6.7949 11.916 7.52624C11.916 8.25759 12.5089 8.85046 13.2402 8.85046Z" fill="#100E1D"></path><path d="M18.1572 8.85046C18.8886 8.85046 19.4814 8.25759 19.4814 7.52624C19.4814 6.7949 18.8886 6.20203 18.1572 6.20203C17.4259 6.20203 16.833 6.7949 16.833 7.52624C16.833 8.25759 17.4259 8.85046 18.1572 8.85046Z" fill="#100E1D"></path><path d="M23.8062 24.2892L20.8097 27.3489L20.5649 27.5989L20.8149 27.8438L23.8746 30.8403L22.3557 32.3913L17.4949 27.631L22.2553 22.7703L23.8062 24.2892Z" fill="#100E1D" stroke="white" stroke-width="0.69994"></path><path d="M39.1906 27.3489L36.1941 24.2892L37.745 22.7703L42.5054 27.631L37.6447 32.3913L36.1258 30.8403L39.1854 27.8438L39.4355 27.5989L39.1906 27.3489Z" fill="#64F0BF" stroke="white" stroke-width="0.69994"></path><path d="M26.9792 36.6933L30.9177 17.9755L33.0432 18.4227L29.1046 37.1406L26.9792 36.6933Z" fill="#100E1D" stroke="white" stroke-width="0.69994"></path></svg>