<svg width="52" height="56" viewBox="0 0 52 56" fill="none" xmlns="http://www.w3.org/2000/svg"><circle cx="26" cy="29.0771" r="25.2696" stroke="#DFDFE3" stroke-width="1.46083" stroke-dasharray="4.87 4.87"></circle><path fill-rule="evenodd" clip-rule="evenodd" d="M15.1237 24.6108L19.7346 20L20.2791 20.5445L16.3151 24.5085H30.0186V25.2787H16.3147L20.2786 29.2425L19.734 29.787L15.1131 25.1661C15.1091 25.1621 15.1052 25.158 15.1013 25.1538C15.0684 25.1179 15.0435 25.0774 15.0266 25.0344C15.0111 24.9949 15.0018 24.9522 15.0002 24.9076L15 24.8936C15 24.7818 15.0477 24.6812 15.1237 24.6108Z" fill="#64F0BF"></path><path d="M15.1237 24.6108L15.3797 24.8875L15.3851 24.8825L15.3902 24.8774L15.1237 24.6108ZM19.7346 20L20.0011 19.7335L19.7346 19.467L19.468 19.7335L19.7346 20ZM20.2791 20.5445L20.5456 20.811L20.8121 20.5445L20.5456 20.278L20.2791 20.5445ZM16.3151 24.5085L16.0486 24.2419L15.4051 24.8854H16.3151V24.5085ZM30.0186 24.5085H30.3955V24.1316H30.0186V24.5085ZM30.0186 25.2787V25.6556H30.3955V25.2787H30.0186ZM16.3147 25.2787V24.9017H15.4047L16.0482 25.5452L16.3147 25.2787ZM20.2786 29.2425L20.5451 29.509L20.8116 29.2425L20.5451 28.976L20.2786 29.2425ZM19.734 29.787L19.4675 30.0536L19.734 30.3201L20.0006 30.0536L19.734 29.787ZM15.1131 25.1661L15.3797 24.8996L15.3794 24.8993L15.1131 25.1661ZM15.1013 25.1538L15.379 24.899L15.379 24.8989L15.1013 25.1538ZM15.0266 25.0344L15.3774 24.8966L15.3773 24.8964L15.0266 25.0344ZM15.0002 24.9076L14.6233 24.9143L14.6236 24.921L15.0002 24.9076ZM15 24.8936H14.623L14.6231 24.9003L15 24.8936ZM15.3902 24.8774L20.0011 20.2665L19.468 19.7335L14.8572 24.3443L15.3902 24.8774ZM19.468 20.2665L20.0125 20.811L20.5456 20.278L20.0011 19.7335L19.468 20.2665ZM20.0125 20.278L16.0486 24.2419L16.5816 24.775L20.5456 20.811L20.0125 20.278ZM30.0186 24.1316H16.3151V24.8854H30.0186V24.1316ZM30.3955 25.2787V24.5085H29.6417V25.2787H30.3955ZM16.3147 25.6556H30.0186V24.9017H16.3147V25.6556ZM20.5451 28.976L16.5812 25.0121L16.0482 25.5452L20.012 29.509L20.5451 28.976ZM20.0006 30.0536L20.5451 29.509L20.012 28.976L19.4675 29.5205L20.0006 30.0536ZM14.8466 25.4327L19.4675 30.0536L20.0006 29.5205L15.3797 24.8996L14.8466 25.4327ZM14.8236 25.4087C14.8312 25.4169 14.839 25.425 14.8469 25.433L15.3794 24.8993C15.3793 24.8992 15.3792 24.8991 15.379 24.899L14.8236 25.4087ZM14.6758 25.1723C14.7094 25.2577 14.7588 25.3381 14.8237 25.4087L15.379 24.8989C15.3779 24.8978 15.3776 24.8971 15.3774 24.8966L14.6758 25.1723ZM14.6236 24.921C14.6267 25.009 14.6449 25.0938 14.6759 25.1725L15.3773 24.8964C15.3772 24.896 15.377 24.8953 15.3769 24.8941L14.6236 24.921ZM14.6231 24.9003L14.6234 24.9143L15.3771 24.9008L15.3769 24.8868L14.6231 24.9003ZM14.8678 24.3341C14.7179 24.4728 14.6231 24.6723 14.6231 24.8936H15.3769C15.3769 24.8918 15.3772 24.891 15.3774 24.8905C15.3778 24.8897 15.3785 24.8886 15.3797 24.8875L14.8678 24.3341Z" fill="#64F0BF"></path><path fill-rule="evenodd" clip-rule="evenodd" d="M37.6318 33.4983C37.6242 33.5074 37.6161 33.5163 37.6075 33.5249L32.9864 38.146L32.4419 37.6015L36.406 33.6374L22.7021 33.6374L22.7021 32.8672L36.406 32.8672L32.4421 28.9033L32.9867 28.3588L37.6076 32.9797C37.6116 32.9837 37.6155 32.9878 37.6194 32.992C37.6523 33.0279 37.6772 33.0684 37.6941 33.1114C37.7097 33.1509 37.7189 33.1936 37.7205 33.2383L37.7207 33.2523C37.7207 33.3458 37.6873 33.4316 37.6318 33.4983Z" fill="#100E1D"></path><path d="M37.6318 33.4983L37.342 33.2573L37.3419 33.2574L37.6318 33.4983ZM37.6075 33.5249L37.8741 33.7914L37.8741 33.7914L37.6075 33.5249ZM32.9864 38.146L32.7199 38.4125L32.9864 38.679L33.253 38.4125L32.9864 38.146ZM32.4419 37.6015L32.1754 37.335L31.9089 37.6015L32.1754 37.868L32.4419 37.6015ZM36.406 33.6374L36.6726 33.9039L37.316 33.2604L36.406 33.2604L36.406 33.6374ZM22.7021 33.6374L22.3252 33.6374L22.3252 34.0143L22.7021 34.0143L22.7021 33.6374ZM22.7021 32.8672L22.7021 32.4903L22.3252 32.4903L22.3252 32.8672L22.7021 32.8672ZM36.406 32.8672L36.406 33.2441L37.316 33.2441L36.6725 32.6007L36.406 32.8672ZM32.4421 28.9033L32.1756 28.6368L31.9091 28.9033L32.1756 29.1699L32.4421 28.9033ZM32.9867 28.3588L33.2532 28.0923L32.9867 27.8258L32.7201 28.0923L32.9867 28.3588ZM37.6076 32.9797L37.341 33.2462L37.3413 33.2465L37.6076 32.9797ZM37.6194 32.992L37.3417 33.2469L37.3417 33.2469L37.6194 32.992ZM37.6941 33.1114L37.3433 33.2492L37.3434 33.2495L37.6941 33.1114ZM37.7205 33.2383L38.0974 33.2316L38.0971 33.2248L37.7205 33.2383ZM37.7207 33.2523L38.0977 33.2523L38.0976 33.2455L37.7207 33.2523ZM37.3419 33.2574C37.3417 33.2576 37.3414 33.258 37.341 33.2584L37.8741 33.7914C37.8908 33.7747 37.9067 33.7572 37.9217 33.7392L37.3419 33.2574ZM37.341 33.2584L32.7199 37.8795L33.253 38.4125L37.8741 33.7914L37.341 33.2584ZM33.253 37.8795L32.7084 37.335L32.1754 37.868L32.7199 38.4125L33.253 37.8795ZM32.7084 37.868L36.6726 33.9039L36.1395 33.3708L32.1754 37.335L32.7084 37.868ZM22.7021 34.0143L36.406 34.0143L36.406 33.2604L22.7021 33.2604L22.7021 34.0143ZM22.3252 32.8672L22.3252 33.6374L23.079 33.6374L23.079 32.8672L22.3252 32.8672ZM36.406 32.4903L22.7021 32.4903L22.7021 33.2441L36.406 33.2441L36.406 32.4903ZM32.1756 29.1699L36.1395 33.1337L36.6725 32.6007L32.7087 28.6368L32.1756 29.1699ZM32.7201 28.0923L32.1756 28.6368L32.7087 29.1699L33.2532 28.6253L32.7201 28.0923ZM37.8741 32.7132L33.2532 28.0923L32.7201 28.6253L37.341 33.2462L37.8741 32.7132ZM37.8971 32.7372C37.8895 32.7289 37.8817 32.7208 37.8738 32.7129L37.3413 33.2465C37.3414 33.2466 37.3415 33.2467 37.3417 33.2469L37.8971 32.7372ZM38.0449 32.9736C38.0113 32.8881 37.9619 32.8077 37.897 32.7371L37.3417 33.2469C37.3428 33.2481 37.3431 33.2488 37.3433 33.2492L38.0449 32.9736ZM38.0971 33.2248C38.094 33.1368 38.0758 33.052 38.0448 32.9734L37.3434 33.2495C37.3435 33.2499 37.3437 33.2505 37.3438 33.2518L38.0971 33.2248ZM38.0976 33.2455L38.0973 33.2316L37.3436 33.245L37.3438 33.259L38.0976 33.2455ZM37.9216 33.7393C38.0313 33.6074 38.0976 33.4371 38.0976 33.2523L37.3438 33.2523C37.3438 33.2539 37.3435 33.2546 37.3434 33.255C37.3432 33.2555 37.3428 33.2563 37.342 33.2573L37.9216 33.7393Z" fill="#100E1D"></path></svg>