<svg width="80" height="64" viewBox="0 0 80 64" fill="none" xmlns="http://www.w3.org/2000/svg"><rect y="6.1936" width="72.2581" height="57.8064" rx="4" fill="#64F0BF"></rect><rect x="7.19354" y="1" width="71.2903" height="55.8064" rx="3" fill="white" stroke="#161628" stroke-width="2"></rect><path fill-rule="evenodd" clip-rule="evenodd" d="M48.1237 22.0261C49.9676 20.1822 52.9593 20.1845 54.8088 22.0339L55.3831 22.6083C57.2313 24.4564 57.2331 27.4512 55.3909 29.2933L51.9999 32.6844C50.156 34.5283 47.1643 34.526 45.3148 32.6766L44.7405 32.1022C42.8923 30.2541 42.8905 27.2594 44.7327 25.4172L48.1237 22.0261Z" stroke="black" stroke-width="2" stroke-linecap="round" stroke-linejoin="round"></path><path fill-rule="evenodd" clip-rule="evenodd" d="M34.7065 35.4446C36.5504 33.6007 39.5421 33.6029 41.3916 35.4524L41.9659 36.0267C43.8141 37.8749 43.8159 40.8696 41.9737 42.7118L38.5827 46.1028C36.7388 47.9467 33.7471 47.9445 31.8976 46.095L31.3233 45.5207C29.4751 43.6725 29.4733 40.6778 31.3155 38.8356L34.7065 35.4446Z" stroke="black" stroke-width="2" stroke-linecap="round" stroke-linejoin="round"></path><path d="M38.6603 38.7599L48.0531 29.3672" stroke="black" stroke-width="2" stroke-linecap="round" stroke-linejoin="round"></path><line x1="7.22577" y1="12.4192" x2="79.4838" y2="12.4192" stroke="black" stroke-width="2"></line><circle cx="14.9677" cy="6.7098" r="1.58065" stroke="black" stroke-width="2"></circle></svg>