<svg width="89" height="53" viewBox="0 0 89 53" fill="none" xmlns="http://www.w3.org/2000/svg"><rect x="6" y="6" width="83" height="47" rx="4" fill="#64F0BF"></rect><rect x="1" y="1" width="81" height="45" rx="3" fill="white" stroke="#161628" stroke-width="2"></rect><path d="M30.9367 30C30.6936 30 30.4487 29.9154 30.2489 29.7432L23.3735 23.8187C23.1364 23.6141 23 23.3153 23 22.9997C23 22.6847 23.137 22.3859 23.3735 22.1812L30.2489 16.2567C30.6954 15.8715 31.366 15.9261 31.7466 16.3779C32.1267 16.8303 32.0733 17.509 31.6262 17.8936L25.7013 22.9997L31.6262 28.1058C32.0733 28.491 32.1267 29.1696 31.7466 29.6214C31.5361 29.8716 31.2373 30 30.9367 30Z" fill="#161628"></path><path d="M49.0631 30C48.7624 30 48.4636 29.8716 48.2537 29.6214C47.873 29.1696 47.927 28.491 48.3735 28.1058L54.2986 22.9997L48.3735 17.8936C47.927 17.509 47.873 16.8303 48.2537 16.3779C48.6338 15.9261 49.305 15.8715 49.7509 16.2567L56.6265 22.1812C56.8636 22.3859 57 22.6847 57 22.9997C57 23.3153 56.8636 23.6141 56.6265 23.8187L49.7509 29.7432C49.551 29.9154 49.3062 30 49.0631 30Z" fill="#161628"></path><path d="M37.9961 35C37.9278 35 37.859 34.9918 37.7896 34.9753C37.2524 34.8461 36.9083 34.2439 37.0216 33.6308L41.0322 11.9011C41.1454 11.288 41.6726 10.8954 42.2104 11.0246C42.7476 11.1538 43.0917 11.7554 42.9784 12.369L38.9678 34.0988C38.869 34.6333 38.4561 35 37.9961 35Z" fill="#161628"></path></svg>