<?xml version="1.0" encoding="utf-8"?>
<!-- Generator: Adobe Illustrator 24.0.1, SVG Export Plug-In . SVG Version: 6.00 Build 0)  -->
<svg version="1.1" id="Lockup" xmlns="http://www.w3.org/2000/svg" xmlns:xlink="http://www.w3.org/1999/xlink" x="0px" y="0px"
	 viewBox="0 0 1650 600" style="enable-background:new 0 0 1650 600;" xml:space="preserve">
<style type="text/css">
	.st0{fill:#FFFFFF;}
	.st1{fill:#24BE6A;}
	.st2{fill:#16CDD6;}
	.st3{fill:url(#SVGID_1_);}
</style>
<g>
	<g>
		<path class="st0" d="M543.8,288.4v93.7c0,1.2,1,2.2,2.2,2.2h26c1.2,0,2.2-1,2.2-2.2v-93.9c0-3.7,3-6.7,6.7-6.7h41.1
			c1.2,0,2.2-1,2.2-2.2v-26c0-1.2-1-2.2-2.2-2.2h-40.9C560.5,250.9,543.8,267.7,543.8,288.4z"/>
		<path class="st0" d="M695.9,248.7c-38,0-69.3,31.7-69,69.6c0.4,37.7,30.8,68.3,68.1,68.3c14.4,0,28.1-5.4,39.3-15.1v10.6
			c0,1.2,1,2.2,2.2,2.2h26c1.2,0,2.2-1,2.2-2.2v-64.5C764.8,279.6,733.9,248.7,695.9,248.7z M734.3,317.7
			c0,21.4-17.2,38.9-38.4,38.9c-21.2,0-38.4-17.4-38.4-38.9c0-21.4,17.2-38.9,38.4-38.9C717.1,278.8,734.3,296.2,734.3,317.7z"/>
		<path class="st0" d="M853.9,248.7c-14,0-27.4,4.8-38.4,13.7v-53.8c0-1.2-1-2.2-2.2-2.2h-26c-1.2,0-2.2,1-2.2,2.2v108.8
			c0,38,30.6,69.2,68.6,69.4c38.2,0.2,69.3-30.8,69.3-69C922.9,279.6,892,248.7,853.9,248.7z M892.4,317.7
			c0,21.4-17.2,38.9-38.4,38.9c-21.2,0-38.4-17.4-38.4-38.9c0-21.4,17.2-38.9,38.4-38.9C875.1,278.8,892.4,296.2,892.4,317.7z"/>
		<path class="st0" d="M1009.1,248.7c-14,0-27.4,4.8-38.4,13.7v-53.8c0-1.2-1-2.2-2.2-2.2h-26c-1.2,0-2.2,1-2.2,2.2v108.8
			c0,38,30.6,69.2,68.6,69.4c38.2,0.2,69.3-30.8,69.3-69C1078.1,279.6,1047.1,248.7,1009.1,248.7z M1047.5,317.7
			c0,21.4-17.2,38.9-38.4,38.9s-38.4-17.4-38.4-38.9c0-21.4,17.2-38.9,38.4-38.9S1047.5,296.2,1047.5,317.7z"/>
		<path class="st0" d="M1185.5,206.3h-26c-1.2,0-2.2,1-2.2,2.2v109.1c0,38.1,30.9,69,69,69h8.5c1.2,0,2.2-1,2.2-2.2v-26
			c0-1.2-1-2.2-2.2-2.2h-8.5c-21.2,0-38.4-17.2-38.4-38.4v-37.2h47c1.2,0,2.2-1,2.2-2.2v-25.6c0-1.2-1-2.2-2.2-2.2h-47v-41.9
			C1187.8,207.3,1186.8,206.3,1185.5,206.3z"/>
		<path class="st0" d="M1431,248.7c-38,0-69,30.9-69,69c0,38,30.9,69,69,69c38,0,69-30.9,69-69C1500,279.6,1469.1,248.7,1431,248.7z
			 M1469.5,317.7c0,21.4-17.2,38.9-38.4,38.9c-21.2,0-38.4-17.4-38.4-38.9c0-21.4,17.2-38.9,38.4-38.9
			C1452.2,278.8,1469.5,296.2,1469.5,317.7z"/>
		<path class="st0" d="M1312.6,384.4h26c1.2,0,2.2-1,2.2-2.2v-129c0-1.2-1-2.2-2.2-2.2h-26c-1.2,0-2.2,1-2.2,2.2v129
			C1310.3,383.4,1311.3,384.4,1312.6,384.4z"/>
		<path class="st0" d="M1325.6,196.9c-10.9,0-19.8,8.9-19.8,19.8c0,10.9,8.9,19.8,19.8,19.8c10.9,0,19.8-8.9,19.8-19.8
			C1345.4,205.7,1336.5,196.9,1325.6,196.9z"/>
		<path class="st0" d="M1273.9,347c-10.9,0-19.8,8.9-19.8,19.8c0,10.9,8.9,19.8,19.8,19.8c10.9,0,19.8-8.9,19.8-19.8
			C1293.8,355.9,1284.9,347,1273.9,347z"/>
		<path class="st0" d="M1101.5,384.4h26c1.2,0,2.2-1,2.2-2.2v-129c0-1.2-1-2.2-2.2-2.2h-26c-1.2,0-2.2,1-2.2,2.2v129
			C1099.3,383.4,1100.3,384.4,1101.5,384.4z"/>
		<circle class="st0" cx="1114.5" cy="216.7" r="19.8"/>
	</g>
	<g>
		<path class="st1" d="M346.9,150c-36.4,0-100.2,43.3-141.3,100.5c-35.8,49.6-49.2,94-55,138.7c-5.1,31.7,20.9,60.8,52.9,60.8h126.7
			c9,0,16.5-7.3,16.6-16.3c0.1-9.1-7.3-16.5-16.4-16.5H203.4c-12.6,0-22.2-11.1-20.5-23.5c6.9-48.9,20.6-84.4,49.4-124.4
			c44.5-59.9,88.7-79.9,104.9-85.1c16-5.3,27,2.1,27,18.9c8.4-2.6,20.7-5.4,32.5-5.7C393.9,170.9,375.3,150,346.9,150z"/>
		<path class="st2" d="M391.1,371.7c22.7-22.2,58.9-78.2,58.9-126.4c0-17-7.7-48.4-49.9-48.4c-78.6,0-177.7,93.7-129.8,139.4
			c5.9,5.4,15.6,11.1,30.6,11.1c43.7,0,83.2-51.1,94.3-117.9c2.1-0.2,4.2-0.2,6.3-0.2c10.4,0,15.7,3.8,15.7,15.8
			c0,32.3-25.3,84.2-60.5,114.6c-11.2,10.1-4,22.2,1.5,26.1c19,15.5,31.6,32.2,36.3,50.9c2.1,7.7,8.3,13.2,16.1,13.2
			c11.4,0,15.9-10.3,15.9-17.4C426.5,416.3,408.3,387.9,391.1,371.7z M301,315.3c-30.6,0,7.5-54.5,59.1-76.7
			C346.5,291.4,318.5,315.3,301,315.3z"/>
		<linearGradient id="SVGID_1_" gradientUnits="userSpaceOnUse" x1="343.2957" y1="233.5406" x2="351.2264" y2="324.1889">
			<stop  offset="0" style="stop-color:#006838"/>
			<stop  offset="1.947997e-02" style="stop-color:#036F3C"/>
			<stop  offset="0.1274" style="stop-color:#119150"/>
			<stop  offset="0.2297" style="stop-color:#1CAA5E"/>
			<stop  offset="0.3233" style="stop-color:#22B967"/>
			<stop  offset="0.4" style="stop-color:#24BE6A"/>
			<stop  offset="0.9" style="stop-color:#16CDD6;stop-opacity:0"/>
		</linearGradient>
		<path class="st3" d="M301,315.3v32.1c43.7,0,83.2-51.1,94.3-117.9c-12,0.9-23.9,4.2-35.2,9.1C346.5,291.4,318.5,315.3,301,315.3z"
			/>
	</g>
</g>
</svg>
