<svg xmlns="http://www.w3.org/2000/svg" width="24" height="24" viewBox="0 0 24 24" fill="none"><circle cx="12" cy="12" r="12" fill="#272829"></circle><path d="M10.8985 11.3693C10.4382 12.2861 8.54353 12.1924 6.6666 11.16C4.78966 10.1277 3.64123 8.54754 4.10151 7.63073C4.56179 6.71392 6.45647 6.8076 8.33341 7.83997C10.2103 8.87234 11.3588 10.4525 10.8985 11.3693Z" fill="#1EF165"></path><path d="M13.1015 11.3693C13.5618 12.2861 15.4565 12.1924 17.3334 11.16C19.2103 10.1277 20.3588 8.54754 19.8985 7.63073C19.4382 6.71392 17.5435 6.8076 15.6666 7.83997C13.7897 8.87234 12.6412 10.4525 13.1015 11.3693Z" fill="#1EF165"></path><ellipse cx="8.5" cy="18" rx="0.5" ry="1" fill="#1EF165"></ellipse><circle cx="12" cy="18" r="1" fill="#1EF165"></circle><ellipse cx="15.5" cy="18" rx="0.5" ry="1" fill="#1EF165"></ellipse></svg>