<svg width="55" height="55" viewBox="0 0 55 55" fill="none" xmlns="http://www.w3.org/2000/svg"><g clip-path="url(#clip0)"><circle cx="27.4998" cy="28.5577" r="23.6923" stroke="#DFDFE3" stroke-width="1.26923" stroke-dasharray="4.23 4.23"></circle><rect x="34.9043" y="32.7885" width="17.9808" height="21.1538" fill="white"></rect><rect x="3.17285" y="32.7885" width="17.9808" height="21.1538" fill="white"></rect><rect x="17.9805" y="-1.05769" width="19.0385" height="21.1538" fill="white"></rect><path d="M31.8138 11.1531C33.1017 9.97883 33.9167 8.29308 33.9167 6.41667C33.9167 2.87925 31.0383 0 27.5 0C23.9617 0 21.0833 2.87925 21.0833 6.41667C21.0833 8.29308 21.8982 9.97883 23.1862 11.1531C19.3829 11.8864 16.5 15.2359 16.5 19.25V22.9167C16.5 23.4236 16.9107 23.8333 17.4167 23.8333H37.5833C38.0893 23.8333 38.5 23.4236 38.5 22.9167V19.25C38.5 15.2359 35.6171 11.8864 31.8138 11.1531ZM22.9167 6.41667C22.9167 3.88942 24.9727 1.83333 27.5 1.83333C30.0272 1.83333 32.0833 3.88942 32.0833 6.41667C32.0833 8.94392 30.0272 11 27.5 11C24.9727 11 22.9167 8.94392 22.9167 6.41667ZM36.6667 22H18.3333V19.25C18.3333 15.7126 21.2117 12.8333 24.75 12.8333H30.25C33.7883 12.8333 36.6667 15.7126 36.6667 19.25V22Z" fill="#64F0BF"></path><path d="M15.3138 42.3198C16.6018 41.1455 17.4167 39.4598 17.4167 37.5833C17.4167 34.0459 14.5383 31.1667 11 31.1667C7.46167 31.1667 4.58333 34.0459 4.58333 37.5833C4.58333 39.4598 5.39825 41.1455 6.68617 42.3198C2.88292 43.0531 0 46.4026 0 50.4167V54.0833C0 54.5903 0.410667 55 0.916667 55H21.0833C21.5893 55 22 54.5903 22 54.0833V50.4167C22 46.4026 19.1171 43.0531 15.3138 42.3198ZM6.41667 37.5833C6.41667 35.0561 8.47275 33 11 33C13.5273 33 15.5833 35.0561 15.5833 37.5833C15.5833 40.1106 13.5273 42.1667 11 42.1667C8.47275 42.1667 6.41667 40.1106 6.41667 37.5833ZM20.1667 53.1667H1.83333V50.4167C1.83333 46.8793 4.71167 44 8.25 44H13.75C17.2883 44 20.1667 46.8793 20.1667 50.4167V53.1667Z" fill="#100E1D"></path><path d="M48.3138 42.3198C49.6017 41.1455 50.4167 39.4598 50.4167 37.5833C50.4167 34.0459 47.5383 31.1667 44 31.1667C40.4617 31.1667 37.5833 34.0459 37.5833 37.5833C37.5833 39.4598 38.3982 41.1455 39.6862 42.3198C35.8829 43.0531 33 46.4026 33 50.4167V54.0833C33 54.5903 33.4107 55 33.9167 55H54.0833C54.5893 55 55 54.5903 55 54.0833V50.4167C55 46.4026 52.1171 43.0531 48.3138 42.3198ZM39.4167 37.5833C39.4167 35.0561 41.4727 33 44 33C46.5272 33 48.5833 35.0561 48.5833 37.5833C48.5833 40.1106 46.5272 42.1667 44 42.1667C41.4727 42.1667 39.4167 40.1106 39.4167 37.5833ZM53.1667 53.1667H34.8333V50.4167C34.8333 46.8793 37.7117 44 41.25 44H46.75C50.2883 44 53.1667 46.8793 53.1667 50.4167V53.1667Z" fill="#100E1D"></path><circle cx="27.5003" cy="6.34616" r="4.23077" fill="white"></circle></g><defs><clipPath id="clip0"><rect width="55" height="55" fill="white"></rect></clipPath></defs></svg>