<svg width="54" height="54" viewBox="0 0 54 54" fill="none" xmlns="http://www.w3.org/2000/svg"><g clip-path="url(#clip0)"><path d="M54 26.8945C54 11.9042 41.6326 0 26.8945 0C20.4025 0 14.2023 2.31599 9.31658 6.54086C8.87203 6.40269 8.39964 6.32812 7.91016 6.32812C5.29316 6.32812 3.16406 8.45722 3.16406 11.0742C3.16406 11.8654 3.35971 12.6115 3.70364 13.2682C1.27786 17.3886 0 22.0769 0 26.8945C0 41.6496 11.9211 54 26.8945 54C33.415 54 39.8358 51.6265 44.6817 47.4586C45.1268 47.5972 45.5997 47.6719 46.0898 47.6719C48.7068 47.6719 50.8359 45.5428 50.8359 42.9258C50.8359 42.1338 50.64 41.3872 50.2954 40.7301C52.6899 36.6364 54 31.7658 54 26.8945ZM7.91016 9.49219C8.78249 9.49219 9.49219 10.2019 9.49219 11.0742C9.49219 11.9466 8.78249 12.6562 7.91016 12.6562C7.03782 12.6562 6.32812 11.9466 6.32812 11.0742C6.32812 10.2019 7.03782 9.49219 7.91016 9.49219ZM46.0898 44.5078C45.2175 44.5078 44.5078 43.7981 44.5078 42.9258C44.5078 42.0534 45.2175 41.3438 46.0898 41.3438C46.9622 41.3438 47.6719 42.0534 47.6719 42.9258C47.6719 43.7981 46.9622 44.5078 46.0898 44.5078ZM47.8999 38.5391C47.3418 38.308 46.7306 38.1797 46.0898 38.1797C43.4728 38.1797 41.3438 40.3088 41.3438 42.9258C41.3438 43.8713 41.6228 44.7523 42.1011 45.493C37.8894 48.9044 32.4352 50.857 26.8945 50.857C13.8096 50.857 3.14297 40.1169 3.14297 26.9156C3.14297 22.8914 4.17403 18.9493 6.09652 15.4594C6.65561 15.6915 7.26806 15.8203 7.91016 15.8203C10.5272 15.8203 12.6562 13.6912 12.6562 11.0742C12.6562 10.1274 12.3764 9.24529 11.8969 8.50395C16.1246 5.04995 21.3908 3.14297 26.8945 3.14297C40.0958 3.14297 50.857 13.8096 50.857 26.8945C50.857 30.977 49.801 35.0524 47.8999 38.5391Z" fill="#DFDFE3" stroke="white" stroke-width="1.5"></path><path d="M26.8976 10C17.5803 10 10 17.5803 10 26.8976C10 36.2155 17.5323 44 26.8976 44C36.2259 44 44 36.2568 44 26.8976C44 17.5154 36.1994 10 26.8976 10ZM26.8976 40.9482C19.2743 40.9482 13.0518 34.6543 13.0518 26.9181C13.0518 19.2948 19.2743 13.0518 26.8976 13.0518C34.6338 13.0518 40.9482 19.2743 40.9482 26.8976C40.9482 34.5027 34.5027 40.9482 26.8976 40.9482Z" fill="#64F0BF" stroke="white" stroke-width="1.45649"></path><path d="M30.3445 26.6051C31.1801 25.9549 31.7192 24.9407 31.7192 23.8025C31.7192 22.0779 30.4828 20.6373 28.85 20.3188V19H27.3549V20.2525H26.768H24.8465V19H23.3514V20.2525H22V21.7476H23.3514V26.605V31.4624H22V32.9575H23.3514V34.21H24.8465V32.9575H26.768H27.3549V34.21H28.85V32.8913C30.4828 32.5727 31.7192 31.132 31.7192 29.4074C31.7192 28.2692 31.1801 27.2551 30.3445 26.6051ZM24.8464 25.8574V21.7476H26.7679H28.1692C29.3023 21.7476 30.2241 22.6694 30.2241 23.8025C30.2241 24.9355 29.3023 25.8574 28.1692 25.8574H24.8464ZM28.1692 31.4623H26.768H24.8465V27.3525H28.1692C29.3023 27.3525 30.2241 28.2744 30.2241 29.4074C30.2241 30.5405 29.3023 31.4623 28.1692 31.4623Z" fill="#100E1D"></path></g><defs><clipPath id="clip0"><rect width="54" height="54" fill="white"></rect></clipPath></defs></svg>