<svg width="56" height="56" viewBox="0 0 56 56" fill="none" xmlns="http://www.w3.org/2000/svg"><g clip-path="url(#clip0)"><path d="M52.9738 28C52.9738 25.842 52.6987 23.7073 52.1553 21.6385L55.3162 19.3131L49.181 8.68678L45.5812 10.264C42.5036 7.20825 38.7349 5.0307 34.5683 3.90053L34.1351 0H21.8647L21.4314 3.90053C17.2646 5.0307 13.4961 7.20825 10.4185 10.264L6.81877 8.68678L0.683594 19.3131L3.84453 21.6385C3.30094 23.7073 3.02597 25.842 3.02597 28C3.02597 30.158 3.30105 32.2927 3.84453 34.3615L0.683594 36.6868L6.81877 47.3131L10.4185 45.7359C13.4962 48.7918 17.2647 50.9693 21.4314 52.0994L21.8647 56H34.1351L34.5684 52.0994C38.7352 50.9693 42.5037 48.7916 45.5813 45.7359L49.181 47.3131L55.3162 36.6868L52.1553 34.3615C52.6987 32.2927 52.9738 30.158 52.9738 28ZM32.7097 49.1786L31.5633 49.4324L31.1981 52.7188H24.8017L24.4365 49.4324L23.2901 49.1786C18.9436 48.2167 15.0452 45.9642 12.0164 42.6648L11.2234 41.8009L8.19197 43.1291L4.99374 37.5896L7.65428 35.6324L7.30253 34.5137C6.64213 32.413 6.30722 30.2214 6.30722 28C6.30722 25.7785 6.64213 23.5869 7.30253 21.4863L7.65428 20.3676L4.99374 18.4104L8.19197 12.8709L11.2234 14.1991L12.0164 13.3352C15.0452 10.0358 18.9436 7.78334 23.2901 6.82139L24.4365 6.56764L24.8017 3.28125H31.1981L31.5633 6.56764L32.7097 6.82139C37.0561 7.78345 40.9546 10.0359 43.9834 13.3352L44.7764 14.1991L47.8078 12.8709L51.0061 18.4104L48.3455 20.3676L48.6973 21.4863C49.3577 23.587 49.6926 25.7786 49.6926 28C49.6926 30.2214 49.3578 32.413 48.6973 34.5137L48.3455 35.6324L51.0061 37.5896L47.8078 43.1291L44.7764 41.8009L43.9834 42.6648C40.9546 45.9642 37.0563 48.2167 32.7097 49.1786Z" fill="#DFDFE3" stroke="white" stroke-width="1.5"></path><path d="M20.9208 24.2497L17.4959 27.7468L17.2161 28.0326L17.5018 28.3124L20.9989 31.7373L19.2629 33.5101L13.7073 28.0692L19.1481 22.5137L20.9208 24.2497Z" fill="#100E1D" stroke="white" stroke-width="0.8"></path><path d="M36.852 22.5137L42.2929 28.0692L36.7372 33.5101L35.0012 31.7373L38.4983 28.3124L38.784 28.0326L38.5042 27.7468L35.0793 24.2497L36.852 22.5137Z" fill="#64F0BF" stroke="white" stroke-width="0.8"></path><path d="M24.5472 38.429L29.0489 17.0353L31.4781 17.5465L26.9765 38.9401L24.5472 38.429Z" fill="#100E1D" stroke="white" stroke-width="0.8"></path></g><defs><clipPath id="clip0"><rect width="56" height="56" fill="white"></rect></clipPath></defs></svg>