<?xml version="1.0" encoding="UTF-8"?><svg id="_02_-_RECTANGULAR_Logo" xmlns="http://www.w3.org/2000/svg" viewBox="0 0 3300 900"><defs><style>.cls-1{fill:#fff;}.cls-2{fill:#ef960f;}</style></defs><g id="By_Coinoissuers_-_Yellow_EF960F"><g id="tagline-e5740931-571d-422e-993c-1d73cf467d3a-logo-path-0"><path class="cls-2" d="M972.34,658.97c8.63,1.36,15.22,4.59,19.76,9.68,4.54,5.09,6.81,11.89,6.81,20.4h0c0,11.45-3.92,19.58-11.77,24.39-7.84,4.82-19.61,7.22-35.3,7.22h-16.13c-2.36,0-4.27-.67-5.72-2-1.45-1.36-2.24-3.21-2.36-5.54h0v-89.45c0-2.7-.17-5.8-.5-9.31-.33-3.54-.89-6.44-1.68-8.68h0c4.72-2.45,12.73-3.68,24.03-3.68h0c14.45,0,25.32,2.27,32.62,6.81,7.3,4.51,10.95,11.77,10.95,21.76h0c0,6.94-1.8,12.9-5.41,17.9-3.57,5-8.68,8.49-15.31,10.49h0ZM948.81,608.04c-3.91,0-6.42.11-7.54.32h0v48.11h14.13c6.94.09,12.57-2.04,16.9-6.41,4.3-4.36,6.45-10.58,6.45-18.67h0c0-8.06-2.33-13.96-7-17.72-4.63-3.76-12.28-5.63-22.94-5.63h0ZM952.35,714.43c10.66,0,18.64-1.98,23.94-5.95,5.33-4,8-10.42,8-19.26h0c0-9.84-2.71-16.73-8.13-20.67-5.45-3.91-13.39-5.86-23.8-5.86h-11.08v51.74h11.08ZM1126.16,617.63l-32.8,61.19v22.67c0,7.75.74,13.75,2.23,17.99h0c-.79.79-1.86,1.48-3.23,2.09-1.33.64-2.85.95-4.54.95h0c-2.33,0-4.21-.68-5.63-2.04-1.39-1.33-2.09-3.12-2.09-5.36h0l-.18-36.3c-.88-1.36-1.48-2.38-1.82-3.04h0l-30.12-61.19c-1.12-2.33-3.01-4.97-5.68-7.9h0c1-1.12,2.33-2.12,4-3,1.7-.91,3.6-1.36,5.72-1.36h0c2.36,0,4.21.62,5.54,1.86,1.36,1.24,2.6,3.09,3.73,5.54h0l27.53,59.33,26.08-55.29c1.12-2.57,1.68-4.54,1.68-5.91h0c0-1.67-.39-3.06-1.18-4.18h0c2.03-.91,4.5-1.36,7.4-1.36h0c2.12,0,3.74.62,4.86,1.86s1.74,2.8,1.86,4.68h0c0,2.15-1.12,5.07-3.36,8.77h0ZM1286.83,722.84c-14.11,0-25.06-5.21-32.84-15.63-7.78-10.42-11.67-25.32-11.67-44.7h0c0-19.5,3.97-34.46,11.9-44.88,7.96-10.42,19.12-15.63,33.48-15.63h0c5.94,0,11.45.76,16.54,2.27,5.09,1.51,9.18,3.59,12.27,6.22,3.09,2.63,4.63,5.47,4.63,8.49h0c0,2.12-1.01,3.97-3.04,5.54-2,1.54-4.63,2.15-7.9,1.82h0c-.88-5.81-3.26-10.3-7.13-13.45-3.88-3.12-8.95-4.68-15.22-4.68h0c-10.08,0-17.7,4.56-22.85,13.67-5.15,9.15-7.72,22.68-7.72,40.61h0c0,17.81,2.57,31.28,7.72,40.43,5.15,9.12,12.66,13.67,22.53,13.67h0c6.27,0,11.75-1.91,16.44-5.72,4.72-3.79,7.75-9.1,9.09-15.95h0l2.04-.18c2.57,0,4.75.59,6.54,1.77,1.79,1.18,2.68,2.89,2.68,5.13h0c0,3.69-1.76,7.16-5.27,10.4-3.54,3.27-8.19,5.88-13.95,7.81-5.78,1.97-11.87,2.95-18.26,2.95h0ZM1418.44,722.84c-14.57,0-25.65-5.04-33.25-15.13-7.63-10.08-11.45-25.15-11.45-45.2h0c0-20.17,3.82-35.3,11.45-45.38,7.6-10.08,18.69-15.13,33.25-15.13h0c14.69,0,25.85,5.04,33.48,15.13,7.6,10.08,11.4,25.21,11.4,45.38h0c0,20.17-3.8,35.27-11.4,45.29-7.63,10.02-18.79,15.04-33.48,15.04h0ZM1418.44,716.61c9.99,0,17.47-4.39,22.44-13.17,5-8.81,7.5-22.46,7.5-40.93h0c0-18.59-2.5-32.3-7.5-41.11-4.97-8.78-12.45-13.17-22.44-13.17h0c-9.84,0-17.26,4.42-22.26,13.26-5,8.84-7.5,22.52-7.5,41.02h0c0,18.47,2.5,32.12,7.5,40.93,5,8.78,12.42,13.17,22.26,13.17h0ZM1528.55,722.52c-2.24,0-4.09-.68-5.54-2.04-1.45-1.33-2.18-3.12-2.18-5.36h0l-.18-91.45c0-7.72-.73-13.72-2.18-17.99h0c2.33-2,4.97-3,7.9-3h0c2.33,0,4.22.64,5.68,1.91,1.48,1.3,2.23,3.12,2.23,5.45h0v91.45c0,8.18.73,14.17,2.18,17.99h0c-2.36,2.03-5,3.04-7.9,3.04h0ZM1602.01,722.52c-2.36,0-4.39-.68-6.09-2.04h0c1.36-4.03,2.04-10.36,2.04-18.99h0l-.18-76.95c0-8.96-.39-15.58-1.18-19.85h0c1.24-1.12,3.38-1.68,6.41-1.68h0c2.24,0,3.59.29,4.04.86h0c34.49,49.64,56.35,82.34,65.55,98.12h0l-2.86-83.68c-.24-3.82.03-7.07.82-9.77.79-2.7,2.03-4.44,3.73-5.22h0c.42-.09,1.2-.14,2.32-.14h0c1.48,0,2.73.23,3.73.68h0c-.12,1.21-.06,3.45.18,6.72h0l.14,5.36v85.72c0,8.63.29,14.9.86,18.81h0c-.45.58-1.3,1.03-2.54,1.36-1.24.33-2.47.5-3.68.5h0c-1.12,0-2.24-.23-3.36-.68h0c-10.99-13.33-22.46-28.98-34.39-46.97-11.93-17.99-22.32-34.49-31.16-49.52h0l2.5,89.08c.12,2.48-.51,4.48-1.91,6-1.39,1.51-3.04,2.27-4.95,2.27h0ZM1782.49,722.84c-14.57,0-25.65-5.04-33.25-15.13-7.63-10.08-11.45-25.15-11.45-45.2h0c0-20.17,3.82-35.3,11.45-45.38,7.6-10.08,18.69-15.13,33.25-15.13h0c14.69,0,25.85,5.04,33.48,15.13,7.6,10.08,11.4,25.21,11.4,45.38h0c0,20.17-3.8,35.27-11.4,45.29-7.63,10.02-18.79,15.04-33.48,15.04h0ZM1782.49,716.61c9.99,0,17.47-4.39,22.44-13.17,5-8.81,7.5-22.46,7.5-40.93h0c0-18.59-2.5-32.3-7.5-41.11-4.97-8.78-12.45-13.17-22.44-13.17h0c-9.84,0-17.26,4.42-22.26,13.26-4.97,8.84-7.45,22.52-7.45,41.02h0c0,18.47,2.48,32.12,7.45,40.93,5,8.78,12.42,13.17,22.26,13.17h0ZM1892.61,722.52c-2.24,0-4.09-.68-5.54-2.04-1.45-1.33-2.18-3.12-2.18-5.36h0l-.18-91.45c0-7.72-.73-13.72-2.18-17.99h0c2.36-2,5-3,7.9-3h0c2.33,0,4.24.64,5.72,1.91,1.45,1.3,2.18,3.12,2.18,5.45h0v91.45c0,8.18.73,14.17,2.18,17.99h0c-2.36,2.03-5,3.04-7.9,3.04h0ZM1991.96,722.84c-12.45,0-21.84-2.32-28.17-6.95-6.33-4.66-9.49-10.65-9.49-17.94h0c0-6.48,3.13-9.72,9.4-9.72h0c1.24,0,2.26.06,3.04.18h0c-.58,1.67-.74,4.01-.5,7.04h0c.33,6.51,2.88,11.66,7.63,15.45,4.75,3.82,11.22,5.72,19.4,5.72h0c7.39,0,13.31-1.73,17.76-5.18,4.42-3.48,6.63-8.59,6.63-15.31h0c0-4.36-.98-8.12-2.95-11.27-1.97-3.15-4.77-6.06-8.4-8.72-3.63-2.7-8.81-5.89-15.54-9.59h0c-7.63-4.27-13.63-8-17.99-11.18-4.36-3.21-7.84-6.89-10.45-11.04-2.57-4.15-3.86-9.07-3.86-14.76h0c0-9.21,3.36-16.11,10.08-20.71,6.72-4.57,15.25-6.86,25.58-6.86h0c10.08,0,18.17,1.85,24.26,5.54,6.12,3.69,9.18,8.8,9.18,15.31h0c0,4.69-2.24,7.27-6.72,7.72h0c-.91.21-1.64.32-2.18.32h0c-.67,0-1.68-.11-3.04-.32h0c.33-1.24.5-2.36.5-3.36h0c0-1.36-.17-2.6-.5-3.73h0c-.42-4.82-2.71-8.56-6.86-11.22-4.15-2.7-9.48-4.04-15.99-4.04h0c-5.94,0-11.01,1.35-15.22,4.04-4.21,2.67-6.31,7.03-6.31,13.08h0c0,4.27,1.08,8,3.23,11.18,2.12,3.21,4.98,6.04,8.59,8.49,3.57,2.45,8.66,5.54,15.26,9.27h0c7.06,3.79,12.89,7.36,17.49,10.72,4.6,3.36,8.3,7.28,11.08,11.77,2.82,4.48,4.22,9.69,4.22,15.63h0c0,5.39-1.32,10.39-3.95,14.99-2.63,4.57-6.87,8.3-12.72,11.18-5.81,2.85-13.31,4.27-22.49,4.27h0ZM2116.48,722.84c-12.42,0-21.79-2.32-28.12-6.95-6.36-4.66-9.54-10.65-9.54-17.94h0c0-6.48,3.15-9.72,9.45-9.72h0c1.21,0,2.21.06,3,.18h0c-.55,1.67-.71,4.01-.5,7.04h0c.33,6.51,2.89,11.66,7.68,15.45,4.75,3.82,11.22,5.72,19.4,5.72h0c7.39,0,13.3-1.73,17.72-5.18,4.42-3.48,6.63-8.59,6.63-15.31h0c0-4.36-.97-8.12-2.91-11.27-1.97-3.15-4.77-6.06-8.4-8.72-3.66-2.7-8.86-5.89-15.58-9.59h0c-7.6-4.27-13.58-8-17.94-11.18-4.39-3.21-7.87-6.89-10.45-11.04-2.57-4.15-3.86-9.07-3.86-14.76h0c0-9.21,3.36-16.11,10.08-20.71,6.72-4.57,15.23-6.86,25.53-6.86h0c10.08,0,18.19,1.85,24.3,5.54,6.12,3.69,9.18,8.8,9.18,15.31h0c0,4.69-2.24,7.27-6.72,7.72h0c-.91.21-1.64.32-2.18.32h0c-.7,0-1.71-.11-3.04-.32h0c.33-1.24.5-2.36.5-3.36h0c0-1.36-.17-2.6-.5-3.73h0c-.45-4.82-2.76-8.56-6.9-11.22-4.15-2.7-9.46-4.04-15.95-4.04h0c-5.94,0-11.01,1.35-15.22,4.04-4.21,2.67-6.31,7.03-6.31,13.08h0c0,4.27,1.08,8,3.23,11.18,2.12,3.21,4.97,6.04,8.54,8.49,3.6,2.45,8.71,5.54,15.31,9.27h0c7.06,3.79,12.89,7.36,17.49,10.72,4.57,3.36,8.27,7.28,11.08,11.77,2.79,4.48,4.18,9.69,4.18,15.63h0c0,5.39-1.32,10.39-3.95,14.99-2.63,4.57-6.86,8.3-12.67,11.18-5.81,2.85-13.33,4.27-22.53,4.27h0ZM2272.79,708.57c.91.42,1.62,1.29,2.14,2.59.48,1.3.73,2.68.73,4.13h0c0,1.54-.27,2.83-.82,3.86-.58,1-1.42,1.5-2.54,1.5h-53.42c-2.36,0-4.24-.67-5.63-2-1.42-1.36-2.14-3.21-2.14-5.54h0l-.14-88.08c0-7.3-.73-13.07-2.18-17.31h0c1.54-1.36,3.13-2.29,4.77-2.77,1.64-.51,3.91-.77,6.81-.77h50.74c.79,0,1.41.36,1.86,1.09s.68,1.65.68,2.77h0c0,1.57-.36,3.2-1.09,4.86-.73,1.7-1.65,2.77-2.77,3.23h0c-16.02-2.82-31.15-4.29-45.38-4.41h0v43.7h41.34c.33,1.36.5,2.71.5,4.04h0c0,1.36-.17,2.71-.5,4.04h-41.2v49.74c14.02-.09,30.1-1.65,48.24-4.68h0ZM2412.66,610.04v59.33c0,17.72-3.48,31.06-10.45,40.02-6.94,8.96-17.19,13.45-30.75,13.45h0c-13.33,0-23.29-4.35-29.89-13.04-6.63-8.66-9.95-22.14-9.95-40.43h0v-45.7c0-8.06-.67-14.05-2-17.99h0c2.36-2,4.94-3,7.72-3h0c2.36,0,4.24.64,5.63,1.91,1.39,1.3,2.09,3.12,2.09,5.45h0v59.87c0,16.11,2.14,27.92,6.41,35.43,4.27,7.51,10.93,11.27,19.99,11.27h0c9.3,0,16.28-3.95,20.94-11.86,4.63-7.87,6.95-19.49,6.95-34.84h0v-46.25c0-7.72-.73-13.72-2.18-17.99h0c2.36-2,4.95-3,7.77-3h0c2.24,0,4.09.67,5.54,2,1.45,1.33,2.18,3.12,2.18,5.36h0ZM2555.35,709.57c.67,1.33,1,2.79,1,4.36h0c0,2.7-1.12,4.8-3.36,6.31-2.24,1.51-4.48,2.27-6.72,2.27h0c-4.15,0-7.42-1.32-9.81-3.95-2.42-2.63-4.8-6.87-7.13-12.72h0l-7.77-19.81c-1.54-3.82-2.97-6.78-4.27-8.9-1.3-2.15-3.29-3.98-5.95-5.5-2.7-1.51-6.34-2.27-10.95-2.27h0l-12.45-.14v32.75c0,2.7.17,5.78.5,9.27.36,3.48.92,6.22,1.68,8.22h0c-.76.79-1.82,1.48-3.18,2.09-1.33.64-2.85.95-4.54.95h0c-2.33,0-4.24-.68-5.72-2.04-1.45-1.33-2.23-3.12-2.32-5.36h0v-91.45c0-2.7-.17-5.8-.5-9.31-.36-3.54-.92-6.44-1.68-8.68h0c4.69-2.45,12.92-3.68,24.67-3.68h0c16.05,0,27.88,2.48,35.48,7.45,7.63,5,11.45,13.1,11.45,24.3h0c0,8.09-2.33,14.93-7,20.53-4.63,5.6-10.87,9.4-18.72,11.4h0c3.91,1.12,7.07,3.1,9.49,5.95,2.39,2.88,4.6,6.56,6.63,11.04h0l8.4,19.81c1.33,3.27,2.62,5.6,3.86,7,1.24,1.39,2.59,2.15,4.04,2.27h0c2,0,3.62-.73,4.86-2.18h0ZM2487.94,663.19l13.13.14c8.18-.21,14.87-2.89,20.08-8.04,5.21-5.15,7.81-11.93,7.81-20.35h0c0-9.18-2.5-15.96-7.5-20.35-4.97-4.36-12.95-6.54-23.94-6.54h0c-4.36,0-7.56.17-9.59.5h0v54.65ZM2636.35,722.84c-12.42,0-21.79-2.32-28.12-6.95-6.33-4.66-9.49-10.65-9.49-17.94h0c0-6.48,3.13-9.72,9.4-9.72h0c1.24,0,2.24.06,3,.18h0c-.55,1.67-.71,4.01-.5,7.04h0c.33,6.51,2.89,11.66,7.68,15.45,4.75,3.82,11.22,5.72,19.4,5.72h0c7.39,0,13.3-1.73,17.72-5.18,4.45-3.48,6.68-8.59,6.68-15.31h0c0-4.36-.98-8.12-2.95-11.27-1.97-3.15-4.77-6.06-8.4-8.72-3.63-2.7-8.81-5.89-15.54-9.59h0c-7.63-4.27-13.63-8-17.99-11.18-4.39-3.21-7.87-6.89-10.45-11.04-2.57-4.15-3.86-9.07-3.86-14.76h0c0-9.21,3.36-16.11,10.08-20.71,6.72-4.57,15.25-6.86,25.58-6.86h0c10.08,0,18.17,1.85,24.26,5.54,6.12,3.69,9.18,8.8,9.18,15.31h0c0,4.69-2.24,7.27-6.72,7.72h0c-.91.21-1.64.32-2.18.32h0c-.67,0-1.68-.11-3.04-.32h0c.33-1.24.5-2.36.5-3.36h0c0-1.36-.17-2.6-.5-3.73h0c-.45-4.82-2.76-8.56-6.9-11.22-4.12-2.7-9.43-4.04-15.95-4.04h0c-5.94,0-11.01,1.35-15.22,4.04-4.21,2.67-6.31,7.03-6.31,13.08h0c0,4.27,1.08,8,3.23,11.18,2.12,3.21,4.97,6.04,8.54,8.49,3.6,2.45,8.71,5.54,15.31,9.27h0c7.06,3.79,12.89,7.36,17.49,10.72,4.6,3.36,8.3,7.28,11.08,11.77,2.82,4.48,4.22,9.69,4.22,15.63h0c0,5.39-1.32,10.39-3.95,14.99-2.63,4.57-6.87,8.3-12.72,11.18-5.81,2.85-13.33,4.27-22.53,4.27h0Z"/></g></g><g id="CoinoSwap_-_White_FFFFFF"><g id="text-logo-path-0"><path class="cls-1" d="M1030.66,433.76c-26.76,0-50.19-5.54-70.28-16.63-20.09-11.06-35.58-26.72-46.47-46.98-10.92-20.26-16.38-43.77-16.38-70.53h0c0-27.01,5.54-50.51,16.63-70.49,11.06-19.95,26.63-35.3,46.73-46.05,20.09-10.72,43.35-16.08,69.77-16.08h0c19.98,0,38.51,3.66,55.59,10.97,17.08,7.34,31.39,17.85,42.93,31.53,11.54,13.68,19.09,29.74,22.67,48.2h-60.23c-2.31-7.4-6.43-13.86-12.37-19.37-5.97-5.54-13.16-9.82-21.57-12.83-8.41-3.01-17.42-4.52-27.01-4.52h0c-14.07,0-26.87,3.12-38.41,9.37-11.57,6.22-20.68,15.31-27.35,27.27-6.7,11.93-10.05,26.04-10.05,42.34h0c0,16.04,3.35,30.08,10.05,42.13,6.67,12.07,15.74,21.34,27.23,27.82,11.51,6.44,24.36,9.67,38.54,9.67h0c14.89,0,27.93-3.28,39.13-9.83,11.2-6.58,18.47-15.7,21.82-27.35h60.57c-3.57,18.57-11.21,34.75-22.92,48.54-11.71,13.79-26.17,24.38-43.39,31.78-17.19,7.37-35.6,11.06-55.21,11.06h0ZM1310.47,433.76c-18.91,0-35.67-3.57-50.27-10.72-14.6-7.15-25.95-17.33-34.02-30.56-8.08-13.23-12.11-28.66-12.11-46.3h0c0-17.31,4.07-32.63,12.2-45.97,8.13-13.34,19.5-23.69,34.11-31.07,14.6-7.4,31.31-11.1,50.1-11.1h0c18.94,0,35.68,3.7,50.23,11.1,14.55,7.37,25.83,17.73,33.85,31.07,8.02,13.34,12.03,28.66,12.03,45.97h0c0,17.64-4.01,33.08-12.03,46.3-8.02,13.23-19.28,23.41-33.77,30.56-14.49,7.15-31.26,10.72-50.31,10.72h0ZM1271.17,346.51c0,12.35,3.01,22.54,9.03,30.56,5.99,8.02,16.08,12.03,30.26,12.03h0c13.99,0,23.98-4.01,29.97-12.03,5.99-8.02,8.99-18.21,8.99-30.56h0c0-12.24-3.08-22.62-9.24-31.15-6.19-8.55-16.1-12.83-29.72-12.83h0c-13.84,0-23.85,4.28-30.01,12.83-6.19,8.53-9.29,18.91-9.29,31.15h0ZM1483.15,429.96v-168.12h57.11v168.12h-57.11ZM1511.73,233.98c-6.13,0-11.73-1.53-16.8-4.6-5.09-3.04-9.13-7.13-12.11-12.28-3.01-5.12-4.52-10.69-4.52-16.72h0c0-6.11,1.51-11.73,4.52-16.88,2.98-5.12,7.02-9.16,12.11-12.11,5.07-2.93,10.67-4.39,16.8-4.39h0c5.99,0,11.55,1.46,16.67,4.39,5.15,2.95,9.26,6.99,12.33,12.11,3.04,5.15,4.56,10.78,4.56,16.88h0c0,6.02-1.52,11.59-4.56,16.72-3.07,5.15-7.18,9.24-12.33,12.28-5.12,3.07-10.68,4.6-16.67,4.6h0ZM1631.73,429.96v-168.12h57.15v20.6c5.88-7.49,13.27-13.42,22.16-17.81,8.86-4.39,18.67-6.58,29.42-6.58h0c21.58,0,37.51,6.75,47.78,20.26,10.27,13.51,15.41,32.26,15.41,56.27h0v95.4h-57.15v-95.4c0-10.16-2.07-17.83-6.2-23-4.16-5.21-10.64-7.81-19.42-7.81h0c-5.99,0-11.41,1.51-16.25,4.52-4.84,2.98-8.68,7.36-11.52,13.13-2.81,5.77-4.22,12.76-4.22,20.98h0v87.59h-57.15ZM1972.5,433.76c-18.91,0-35.67-3.57-50.27-10.72-14.6-7.15-25.95-17.33-34.02-30.56-8.08-13.23-12.11-28.66-12.11-46.3h0c0-17.31,4.07-32.63,12.2-45.97,8.13-13.34,19.5-23.69,34.11-31.07,14.6-7.4,31.31-11.1,50.1-11.1h0c18.94,0,35.68,3.7,50.23,11.1,14.52,7.37,25.8,17.73,33.85,31.07,8.02,13.34,12.03,28.66,12.03,45.97h0c0,17.64-4.01,33.08-12.03,46.3-8.05,13.23-19.3,23.41-33.77,30.56-14.49,7.15-31.26,10.72-50.31,10.72h0ZM1933.2,346.51c0,12.35,3,22.54,8.99,30.56,6.02,8.02,16.12,12.03,30.31,12.03h0c13.99,0,23.98-4.01,29.97-12.03,5.99-8.02,8.99-18.21,8.99-30.56h0c0-12.24-3.08-22.62-9.24-31.15-6.19-8.55-16.1-12.83-29.72-12.83h0c-13.84,0-23.85,4.28-30.01,12.83-6.19,8.53-9.29,18.91-9.29,31.15h0ZM2237.79,433.76c-19.61,0-37.38-3.14-53.31-9.41-15.93-6.3-28.6-16.12-38.03-29.46-9.4-13.31-13.93-30.07-13.59-50.27h59.56c0,13.73,4.36,24.26,13.09,31.57,8.72,7.34,20.12,11.02,34.19,11.02h0c10.86,0,19.75-2.31,26.68-6.92,6.92-4.61,10.38-12.35,10.38-23.22h0c0-7.37-2.25-13.25-6.75-17.64-4.5-4.39-10.13-7.74-16.88-10.05-6.75-2.31-16.31-4.84-28.66-7.6h0c-6.22-1.29-12.86-2.86-19.92-4.69h0c-12.44-3.35-23.16-7.44-32.16-12.28-9-4.87-16.49-11.92-22.46-21.15-5.94-9.23-8.91-21.23-8.91-36.01h0c0-17.9,4.33-32.9,13-45,8.64-12.13,19.95-21.11,33.94-26.93,13.96-5.83,28.9-8.74,44.83-8.74h0c16.04,0,31.19,2.94,45.46,8.82,14.24,5.88,25.86,15,34.87,27.35,9,12.35,13.51,27.82,13.51,46.39h-56.1c-.93-11.88-4.97-20.88-12.11-27.01-7.15-6.11-16.43-9.16-27.86-9.16h0c-9.82,0-17.67,2.25-23.55,6.75-5.88,4.5-8.82,11.02-8.82,19.54h0c0,7.06,2.07,12.63,6.2,16.72,4.16,4.11,9.46,7.2,15.87,9.29,6.39,2.05,15.29,4.24,26.72,6.54h0l7.98,1.73c15.59,3.49,28.96,7.77,40.1,12.83,11.12,5.07,20.37,12.75,27.77,23.05,7.37,10.27,11.06,23.88,11.06,40.82h0c0,20.2-4.4,36.48-13.21,48.84-8.84,12.35-20.42,21.16-34.74,26.42-14.3,5.23-30.33,7.85-48.12,7.85h0ZM2445.42,429.96l-54.03-168.12h58.71l29.76,95.4,37.74-95.4h36.55l38.07,95.77,30.14-95.77h59.01l-55.21,168.12h-53.69l-36.51-93.33-36.34,93.33h-54.2ZM2815.6,433.76c-15.56,0-29.38-3.77-41.45-11.31-12.07-7.57-21.46-18.02-28.15-31.36-6.67-13.34-10-28.31-10-44.91h0c0-16.74,3.33-31.81,10-45.21,6.7-13.37,16.08-23.86,28.15-31.49,12.07-7.63,25.89-11.44,41.45-11.44h0c11.68,0,22.44,1.9,32.29,5.7,9.88,3.83,18.28,10.06,25.2,18.7h0v-20.6h57.32v168.12h-57.32v-20.26c-5.32,8.08-13.31,14.11-23.98,18.11-10.67,3.97-21.84,5.95-33.51,5.95h0ZM2793.1,346.17c0,7.49,1.53,14.44,4.6,20.85,3.04,6.42,7.57,11.52,13.59,15.32,5.99,3.8,13.27,5.7,21.82,5.7h0c8.53,0,15.79-1.9,21.78-5.7,6.02-3.8,10.55-8.91,13.59-15.32,3.07-6.42,4.6-13.37,4.6-20.85h0c0-7.63-1.53-14.63-4.6-21.02-3.04-6.42-7.57-11.52-13.59-15.32-5.99-3.83-13.25-5.74-21.78-5.74h0c-8.55,0-15.83,1.91-21.82,5.74-6.02,3.8-10.55,8.91-13.59,15.32-3.07,6.39-4.6,13.39-4.6,21.02h0ZM3022.05,525.36v-263.52h57.11v20.26c5.32-8.08,13.28-14.1,23.89-18.07,10.61-4,21.87-5.99,33.77-5.99h0c15.59,0,29.41,3.78,41.45,11.35,12.07,7.54,21.46,17.98,28.15,31.32,6.7,13.34,10.05,28.32,10.05,44.95h0c0,16.72-3.35,31.77-10.05,45.16-6.7,13.39-16.08,23.91-28.15,31.53-12.04,7.6-25.86,11.4-41.45,11.4h0c-25.27,0-44.49-8.13-57.66-24.4h0v115.99h-57.11ZM3079.16,345.67c0,7.6,1.53,14.6,4.6,21.02,3.04,6.42,7.57,11.52,13.59,15.32,5.99,3.8,13.25,5.7,21.78,5.7h0c8.67,0,16-1.9,21.99-5.7,6.02-3.8,10.55-8.91,13.59-15.32,3.07-6.42,4.6-13.42,4.6-21.02h0c0-7.51-1.53-14.48-4.6-20.89-3.04-6.39-7.6-11.5-13.68-15.32-6.05-3.8-13.35-5.7-21.91-5.7h0c-8.53,0-15.79,1.9-21.78,5.7-6.02,3.83-10.55,8.93-13.59,15.32-3.07,6.42-4.6,13.38-4.6,20.89h0Z"/></g></g><circle id="Logo_Circle_-_Yellow_EF960F" class="cls-2" cx="442.14" cy="446.55" r="363.33"/><g id="CoinoSwap_C_-_Black_000000"><g id="tagline-d933dae1-9113-4c42-8b5f-6a6615a2d22e-logo-path-0"><path d="M439.51,765.47c127.22,0,231.66-60.53,283.42-161.43l-121.1-73.73c-27.17,53.53-91.24,96.51-162.32,96.51-100.02,0-173.71-78.08-173.71-181.6s68.42-183.37,173.71-183.37c72.85,0,140.38,45.6,166.71,106.14l121.1-75.43c-50.03-103.56-151.81-169.36-287.81-169.36-185.1,0-320.25,128.11-320.25,322.02s127.22,320.25,320.25,320.25Z"/></g></g><g id="Ying_Yang-2"><path id="YANG_-_White_FFFFFF" class="cls-1" d="M462.59,585.08c56.44-12.95,73.83-88.14,28.17-124.2-36.11-28.52-68.02-1.16-101.8-39.26-38.03-42.89-12.11-110.82,44.36-118.22,34.97-4.58,74.6,9.62,101.36,31.94,62.57,52.19,69.23,146.11,13.53,206.05-21.11,22.71-54.39,41.61-85.61,43.69Z"/><path id="YANG_-_Black_000000" d="M440.63,352.64c28.63-1.91,30.29,39.44,5.32,42.58-30.3,3.81-32.54-40.76-5.32-42.58Z"/><path id="YING_-_Black_000000" d="M433.31,303.4c-56.47,7.39-82.39,75.33-44.36,118.22,33.79,38.1,65.69,10.74,101.8,39.26,45.66,36.06,28.27,111.25-28.17,124.2-34.43,7.9-78.44-6.67-105.8-27.95-72.35-56.26-73.43-165.7-1.77-223.12,20.92-16.76,51.44-29.93,78.29-30.61Z"/><path id="YING_-_Light_Gray_666666" class="cls-2" d="M440.19,495.47c18.78-1.46,30.88,20.34,18.85,35.27-13.72,17.02-42.76,4.48-37.7-19.07,1.71-7.98,10.86-15.57,18.85-16.19Z"/></g></svg>