<svg width="101" height="32" viewBox="0 0 101 32" fill="none" xmlns="http://www.w3.org/2000/svg">
<path opacity="0.5" d="M19.7868 29.5277H18.5468L13.2334 8.26094L14.2201 7.26758L19.7868 29.5277Z" fill="#4A5568"/>
<path d="M41.9 9.73828H29.8799V12.3317H34.3599V24.5984H37.4199V12.3317H41.9V9.73828Z" fill="white"/>
<path d="M50.7803 14.7191C50.3136 14.2525 49.7603 13.8991 49.1336 13.6659C48.507 13.4325 47.8336 13.3125 47.1069 13.3125C46.0269 13.3125 45.0936 13.5525 44.2936 14.0391C43.4936 14.5259 42.8803 15.1992 42.4403 16.0659C42.0003 16.9325 41.7803 17.9392 41.7803 19.0859C41.7803 20.2592 42.0003 21.2792 42.4403 22.1392C42.8803 22.9992 43.5069 23.6592 44.3136 24.1259C45.1269 24.5926 46.1003 24.8259 47.2269 24.8259C48.1336 24.8259 48.9336 24.6859 49.627 24.3992C50.3203 24.1192 50.887 23.7192 51.327 23.2126C51.767 22.6992 52.0603 22.1059 52.2003 21.4192L49.387 21.2325C49.2803 21.5125 49.127 21.7525 48.927 21.9459C48.727 22.1392 48.487 22.2859 48.207 22.3792C47.9269 22.4792 47.6136 22.5259 47.2803 22.5259C46.7736 22.5259 46.3269 22.4192 45.9603 22.1992C45.5869 21.9792 45.3003 21.6725 45.1003 21.2725C44.9003 20.8725 44.7936 20.3925 44.7936 19.8459V19.8392H52.267V18.9925C52.267 18.0459 52.1336 17.2192 51.8736 16.5059C51.6203 15.7725 51.2536 15.1859 50.7803 14.7191ZM44.8003 17.8992C44.8203 17.4992 44.9136 17.1325 45.1003 16.7992C45.3003 16.4392 45.5803 16.1525 45.9336 15.9392C46.2869 15.7259 46.7003 15.6192 47.1603 15.6192C47.6003 15.6192 47.9936 15.7192 48.327 15.9125C48.6603 16.1059 48.927 16.3792 49.1136 16.7192C49.307 17.0659 49.4003 17.4592 49.4003 17.8992H44.8003Z" fill="white"/>
<path d="M66.7533 13.3125C65.9467 13.3125 65.2533 13.5059 64.6599 13.8859C64.0733 14.2725 63.6667 14.7791 63.4399 15.4192H63.3333C63.1599 14.7725 62.8067 14.2591 62.2733 13.8791C61.7466 13.4991 61.1066 13.3125 60.3533 13.3125C59.6133 13.3125 58.9733 13.4991 58.4399 13.8791C57.9066 14.2591 57.5266 14.7725 57.2933 15.4259H57.1666V13.4591H54.2666V24.5992H57.3133V17.9059C57.3133 17.4925 57.3933 17.1325 57.5466 16.8259C57.7066 16.5192 57.9199 16.2792 58.1866 16.1059C58.4533 15.9325 58.7599 15.8459 59.0999 15.8459C59.5999 15.8459 60.0066 16.0059 60.3133 16.3325C60.6199 16.6592 60.7733 17.0925 60.7733 17.6392V24.5992H63.7267V17.7925C63.7267 17.2125 63.8799 16.7459 64.1933 16.3859C64.4999 16.0325 64.9333 15.8525 65.4867 15.8525C65.9733 15.8525 66.38 16.0059 66.7 16.3192C67.0267 16.6259 67.1867 17.0925 67.1867 17.7125V24.5992H70.2267V17.1059C70.2267 15.8992 69.9067 14.9592 69.2667 14.2991C68.6133 13.6391 67.78 13.3125 66.7533 13.3125Z" fill="white"/>
<path d="M81.094 13.9459C80.4204 13.5259 79.6803 13.3125 78.8803 13.3125C78.267 13.3125 77.7536 13.4191 77.3403 13.6259C76.927 13.8391 76.5936 14.0991 76.3403 14.4125C76.087 14.7259 75.8936 15.0325 75.7603 15.3325H75.627V13.4591H72.627V28.7792H75.6736V22.8192H75.767C75.907 23.1259 76.107 23.4326 76.367 23.7392C76.627 24.0392 76.967 24.2926 77.3803 24.4926C77.7936 24.6926 78.2936 24.7926 78.887 24.7926C79.7204 24.7926 80.474 24.5726 81.1468 24.1392C81.8204 23.6992 82.354 23.0592 82.7468 22.1992C83.1404 21.3459 83.3341 20.2992 83.3341 19.0525C83.3341 17.7725 83.134 16.7125 82.7268 15.8659C82.3068 15.0059 81.7668 14.3659 81.094 13.9459ZM79.947 20.7392C79.767 21.2325 79.507 21.6192 79.167 21.8992C78.827 22.1792 78.407 22.3192 77.907 22.3192C77.4136 22.3192 77.0003 22.1792 76.6536 21.9125C76.307 21.6459 76.047 21.2525 75.867 20.7659C75.687 20.2725 75.5936 19.6925 75.5936 19.0325C75.5936 18.3725 75.687 17.7925 75.867 17.3059C76.047 16.8192 76.307 16.4392 76.647 16.1725C76.987 15.9059 77.407 15.7725 77.9003 15.7725C78.4003 15.7725 78.8203 15.9125 79.167 16.1859C79.507 16.4592 79.767 16.8459 79.947 17.3325C80.1204 17.8192 80.214 18.3859 80.214 19.0325C80.214 19.6725 80.1268 20.2459 79.947 20.7392Z" fill="white"/>
<path d="M88.3939 9.73828H85.3467V24.5984H88.3939V9.73828Z" fill="white"/>
<path d="M99.3741 14.7191C98.9069 14.2525 98.3541 13.8991 97.7269 13.6659C97.1005 13.4325 96.4269 13.3125 95.7005 13.3125C94.6204 13.3125 93.6868 13.5525 92.8868 14.0391C92.0868 14.5259 91.474 15.1992 91.034 16.0659C90.594 16.9325 90.374 17.9392 90.374 19.0859C90.374 20.2592 90.594 21.2792 91.034 22.1392C91.474 22.9992 92.1004 23.6592 92.9068 24.1259C93.7204 24.5926 94.694 24.8259 95.8205 24.8259C96.7269 24.8259 97.5269 24.6859 98.2205 24.3992C98.9141 24.1192 99.4805 23.7192 99.9205 23.2126C100.36 22.6992 100.654 22.1059 100.794 21.4192L97.9805 21.2325C97.8741 21.5125 97.7205 21.7525 97.5205 21.9459C97.3205 22.1392 97.0805 22.2859 96.8005 22.3792C96.5205 22.4792 96.2069 22.5259 95.8741 22.5259C95.3669 22.5259 94.9204 22.4192 94.554 22.1992C94.1804 21.9792 93.894 21.6725 93.694 21.2725C93.494 20.8725 93.3868 20.3925 93.3868 19.8459V19.8392H100.86V18.9925C100.86 18.0459 100.727 17.2192 100.467 16.5059C100.207 15.7725 99.8405 15.1859 99.3741 14.7191ZM93.394 17.8992C93.414 17.4992 93.5068 17.1325 93.694 16.7992C93.894 16.4392 94.174 16.1525 94.5268 15.9392C94.8804 15.7259 95.294 15.6192 95.7541 15.6192C96.1941 15.6192 96.5869 15.7192 96.9205 15.9125C97.2541 16.1059 97.5205 16.3792 97.7069 16.7192C97.9005 17.0659 97.9941 17.4592 97.9941 17.8992H93.394Z" fill="white"/>
<path d="M17.2334 9.8467H22.1534L19.6934 0H2.45996L4.91997 9.8467H9.84668L12.3067 19.6935H9.23332L10.46 24.6135H13.5401L14.7667 29.5402H22.1534L17.2334 9.8467Z" fill="url(#paint0_linear_3380_41846)"/>
<path d="M19.6934 12.3077H17.8468L17.2334 9.84766H22.1534L19.6934 12.3077Z" fill="url(#paint1_linear_3380_41846)"/>
<path d="M17.2334 4.92003H6.15335L5.84668 3.69336H18.1534L17.2334 4.92003Z" fill="url(#paint2_linear_3380_41846)"/>
<path d="M2.46001 12.3067L0 2.46001L2.46001 0L4.92003 9.84669L2.46001 12.3067Z" fill="url(#paint3_linear_3380_41846)"/>
<path d="M13.54 24.6133H10.46L8 27.0799H11.08L13.54 24.6133Z" fill="url(#paint4_linear_3380_41846)"/>
<path d="M7.38665 12.3077H2.45996L4.91997 9.84766H9.84668L7.38665 12.3077Z" fill="url(#paint5_linear_3380_41846)"/>
<path d="M12.3067 19.6943H9.23337L7.38672 12.3077L9.84673 9.84766L12.3067 19.6943Z" fill="url(#paint6_linear_3380_41846)"/>
<path d="M10.4599 24.6134L9.2333 19.6934L6.7666 22.1534L7.99994 27.08L10.4599 24.6134Z" fill="url(#paint7_linear_3380_41846)"/>
<path d="M14.7667 29.5399L13.5401 24.6133L11.0801 27.0799L12.3067 32L14.7667 29.5399Z" fill="url(#paint8_linear_3380_41846)"/>
<path d="M19.6927 29.5402L14.1527 7.38672L13.166 8.36672L18.4593 29.5402L17.4793 30.5202H18.706L19.6927 29.5402Z" fill="url(#paint9_linear_3380_41846)"/>
<path d="M19.0801 7.38672H17.8468L17.2334 4.92003L18.1534 3.69336L19.0801 7.38672Z" fill="url(#paint10_linear_3380_41846)"/>
<path d="M19.6933 29.5391L18.7067 30.5191H17.48L18.46 29.5391H14.7667L12.3066 31.9991H19.6933L22.1533 29.5391H19.6933Z" fill="url(#paint11_linear_3380_41846)"/>
<defs>
<linearGradient id="paint0_linear_3380_41846" x1="2.4615" y1="14.7693" x2="22.154" y2="14.7693" gradientUnits="userSpaceOnUse">
<stop offset="0.00188079" stop-color="#FCC33C"/>
<stop offset="1" stop-color="#FFEE50"/>
</linearGradient>
<linearGradient id="paint1_linear_3380_41846" x1="22.154" y1="11.0779" x2="17.2308" y2="11.0779" gradientUnits="userSpaceOnUse">
<stop stop-color="#FB9828"/>
<stop offset="1" stop-color="#F96C13"/>
</linearGradient>
<linearGradient id="paint2_linear_3380_41846" x1="18.1554" y1="4.30772" x2="5.84617" y2="4.30772" gradientUnits="userSpaceOnUse">
<stop stop-color="#F84200"/>
<stop offset="1" stop-color="#F96C13"/>
</linearGradient>
<linearGradient id="paint3_linear_3380_41846" x1="1.01702" y1="0.360162" x2="3.90609" y2="11.9476" gradientUnits="userSpaceOnUse">
<stop stop-color="#F96C13"/>
<stop offset="1" stop-color="#FB9828"/>
</linearGradient>
<linearGradient id="paint4_linear_3380_41846" x1="7.99998" y1="25.8461" x2="13.5385" y2="25.8461" gradientUnits="userSpaceOnUse">
<stop stop-color="#F84200"/>
<stop offset="1" stop-color="#F96C13"/>
</linearGradient>
<linearGradient id="paint5_linear_3380_41846" x1="2.4615" y1="11.0779" x2="9.84612" y2="11.0779" gradientUnits="userSpaceOnUse">
<stop stop-color="#F84200"/>
<stop offset="1" stop-color="#F96C13"/>
</linearGradient>
<linearGradient id="paint6_linear_3380_41846" x1="10.857" y1="20.0551" x2="8.40168" y2="10.2073" gradientUnits="userSpaceOnUse">
<stop stop-color="#F96C13"/>
<stop offset="1" stop-color="#FB9828"/>
</linearGradient>
<linearGradient id="paint7_linear_3380_41846" x1="9.44602" y1="26.7164" x2="7.78463" y2="20.0529" gradientUnits="userSpaceOnUse">
<stop stop-color="#FB9828"/>
<stop offset="1" stop-color="#F96C13"/>
</linearGradient>
<linearGradient id="paint8_linear_3380_41846" x1="13.7539" y1="31.6394" x2="12.0925" y2="24.9759" gradientUnits="userSpaceOnUse">
<stop stop-color="#F96C13"/>
<stop offset="1" stop-color="#FB9828"/>
</linearGradient>
<linearGradient id="paint9_linear_3380_41846" x1="18.7067" y1="30.5229" x2="13.0088" y2="7.67001" gradientUnits="userSpaceOnUse">
<stop stop-color="#F96C13"/>
<stop offset="1" stop-color="#F84200"/>
</linearGradient>
<linearGradient id="paint10_linear_3380_41846" x1="18.5904" y1="7.90464" x2="17.6698" y2="4.21207" gradientUnits="userSpaceOnUse">
<stop stop-color="#F84200"/>
<stop offset="1" stop-color="#F96C13"/>
</linearGradient>
<linearGradient id="paint11_linear_3380_41846" x1="13.3402" y1="30.7683" x2="20.6948" y2="30.7683" gradientUnits="userSpaceOnUse">
<stop stop-color="#F84200"/>
<stop offset="1" stop-color="#F96C13"/>
</linearGradient>
</defs>
</svg>
