<svg xmlns="http://www.w3.org/2000/svg" width="121" height="107" fill="none"><path fill="#25B7EB" d="m116.4 16.136.477-.151-.477.151Zm-5.265 17.666-.477.152.222.702.571-.466-.316-.388Zm-9.19-29.058.035-.5-.734-.05.222.701.477-.151Zm13.978 11.544c2.023 6.395-.206 13.125-5.104 17.127l.632.775c5.205-4.253 7.576-11.406 5.426-18.205l-.954.303ZM101.909 5.243c6.302.438 11.992 4.649 14.014 11.045l.954-.303c-2.151-6.8-8.2-11.274-14.897-11.74l-.071.998Zm-.441-.348 9.19 29.059.953-.303-9.19-29.059-.953.303Z"/><path stroke="#25B7EB" d="M0 0h14.266v8.406H0z" transform="rotate(-17.634 156.162 20.921) skewX(-.069)"/><path stroke="#E8168D" d="M0 0h14.266v19.053H0z" transform="rotate(-17.634 131.868 -22.435) skewX(-.069)"/><path stroke="#E8168D" d="M0 0h9.79v38.107H0z" transform="rotate(-17.634 58.495 -292.72) skewX(-.069)"/><ellipse cx="64.211" cy="47.194" stroke="#25B7EB" rx="5.453" ry="5.465"/><path fill="#E8168D" fill-rule="evenodd" d="m25.164 30.087-.477.152.151.476 8.287 26.18.15.476.477-.151 25.37-8.064a5.432 5.432 0 0 1-.271-.964l-24.924 7.923-7.985-25.226L92.7 9.67l7.985 25.226L69.17 44.912c.138.301.25.617.332.944l31.96-10.159.477-.152-.151-.476-8.287-26.18-.15-.476-.477.152-67.71 21.522ZM67.517 51.541a5.44 5.44 0 0 1-.846.533L97.583 103.3a1.665 1.665 0 0 1-.562 2.282c-.782.474-1.8.224-2.272-.56l-27.46-45.506-1.857-3.076v47.676a1.656 1.656 0 0 1-3.314 0V57.25l-1.856 3.077L33.183 105.2a1.653 1.653 0 0 1-2.272.56 1.665 1.665 0 0 1-.562-2.282l31.115-51.563a5.472 5.472 0 0 1-.815-.584l-31.157 51.63a2.665 2.665 0 0 0 .9 3.654 2.652 2.652 0 0 0 3.647-.898L60.12 62.5l1-1.657v43.273a2.656 2.656 0 0 0 5.313 0V60.033l1 1.657 26.46 43.849a2.652 2.652 0 0 0 3.648.898 2.663 2.663 0 0 0 .9-3.653L67.516 51.541Z" clip-rule="evenodd"/></svg>