<svg xmlns="http://www.w3.org/2000/svg" width="132" height="72" fill="none"><path stroke="#E8168D" stroke-miterlimit="10" d="M37.993 44.999C14.284 32.177-1.07 18.48 1.43 11.233c3.213-9.397 34.707-4.698 70.342 10.512s61.915 35.04 58.702 44.437c-2.571 7.486-23.138 5.973-49.49-2.628"/><path stroke="#E8168D" stroke-miterlimit="10" d="M1 12.03c3.5-10.274 35.421-7.884 71.2 7.326 35.777 15.21 61.986 35.916 58.487 46.11"/><path stroke="#E8168D" stroke-miterlimit="10" d="M46.703 10.118c17.853-19.43 49.847-5.813 51.275 22.06M6.36 7.968c3.713 8.68 14.996 19.59 32.207 32.252M30.565 8.446c-.786 6.61 7.998 19.989 17.282 29.306M130.402 60.448c-13.997 3.664-29.494 1.991-46.847-1.035M113.408 44.999c-5.784 4.46-18.71 8.123-32.564 8.123M59.342 40.141c-.5-8.919-.714-17.201.285-23.253M86.484 28.912c-4.785 7.167-9.427 13.618-13.64 17.6"/><path stroke="#25B7EB" stroke-miterlimit="10" d="M38.426 41.495c-.071-.477 0-.875.143-1.274 1.428-4.22 12.712-3.344 25.138 1.991 12.426 5.256 21.352 12.98 19.924 17.202-.071.239-.214.477-.357.716"/><path stroke="#25B7EB" stroke-miterlimit="10" d="M82.978 61.484c-1.429 4.22-12.712 3.345-25.138-1.991-12.426-5.256-21.353-12.98-19.924-17.201 1.428-4.221 12.711-3.345 25.137 1.99 12.426 5.336 21.353 12.981 19.925 17.202Z"/><path stroke="#25B7EB" d="M78.484 8.526c0 .7-.498 1.172-1 1.172s-1-.472-1-1.172.498-1.172 1-1.172 1 .472 1 1.172ZM70.844 6.614c0 .568-.401.934-.785.934s-.786-.366-.786-.934c0-.568.402-.933.786-.933s.785.365.785.933ZM84.985 13.304c0 .568-.402.933-.785.933-.384 0-.786-.365-.786-.933 0-.569.402-.934.785-.934.384 0 .786.365.786.934ZM63.204 6.534c0 .26-.178.376-.286.376-.108 0-.285-.116-.285-.376s.177-.376.285-.376c.108 0 .286.116.286.376ZM89.196 19.436c0 .26-.178.376-.285.376-.108 0-.286-.116-.286-.376s.178-.376.285-.376c.108 0 .286.115.286.376Z"/></svg>