<svg width="169" height="157" viewBox="0 0 169 167" fill="none" xmlns="http://www.w3.org/2000/svg">
<rect x="0.682937" y="0.182992" width="20.6792" height="47.9759" transform="matrix(0.86597 -0.500096 0.499904 0.866081 73.6876 92.6375)" stroke="#25B7EB"/>
<rect x="0.682937" y="0.182992" width="3.84595" height="27.0591" transform="matrix(0.86597 -0.500096 0.499904 0.866081 86.2032 97.4862)" stroke="#E8168D"/>
<rect x="0.183033" y="-0.683088" width="23.4879" height="47.9696" transform="matrix(-0.499904 -0.866081 0.86597 -0.500096 43.8895 151.534)" stroke="#25B7EB"/>
<rect x="0.183033" y="-0.683088" width="23.4879" height="47.9696" transform="matrix(-0.499904 -0.866081 0.86597 -0.500096 118.319 108.55)" stroke="#25B7EB"/>
<line y1="-0.5" x2="48.9696" y2="-0.5" transform="matrix(0.86597 -0.500096 0.499904 0.866081 36.8984 141.796)" stroke="#25B7EB"/>
<line y1="-0.5" x2="48.9696" y2="-0.5" transform="matrix(0.86597 -0.500096 0.499904 0.866081 111.328 98.8115)" stroke="#25B7EB"/>
<line y1="-0.5" x2="24.4879" y2="-0.5" transform="matrix(0.499904 0.866081 -0.86597 0.500096 39.6094 126.09)" stroke="#25B7EB"/>
<line y1="-0.5" x2="24.4879" y2="-0.5" transform="matrix(0.499904 0.866081 -0.86597 0.500096 114.047 83.1055)" stroke="#25B7EB"/>
<line y1="-0.5" x2="24.4879" y2="-0.5" transform="matrix(0.499904 0.866081 -0.86597 0.500096 47.7812 121.37)" stroke="#25B7EB"/>
<line y1="-0.5" x2="24.4879" y2="-0.5" transform="matrix(0.499904 0.866081 -0.86597 0.500096 122.219 78.3857)" stroke="#25B7EB"/>
<line y1="-0.5" x2="24.4879" y2="-0.5" transform="matrix(0.499904 0.866081 -0.86597 0.500096 55.9531 116.65)" stroke="#25B7EB"/>
<line y1="-0.5" x2="24.4879" y2="-0.5" transform="matrix(0.499904 0.866081 -0.86597 0.500096 130.391 73.667)" stroke="#25B7EB"/>
<line y1="-0.5" x2="24.4879" y2="-0.5" transform="matrix(0.499904 0.866081 -0.86597 0.500096 64.125 111.932)" stroke="#25B7EB"/>
<line y1="-0.5" x2="24.4879" y2="-0.5" transform="matrix(0.499904 0.866081 -0.86597 0.500096 138.562 68.9473)" stroke="#25B7EB"/>
<rect x="0.682937" y="0.182992" width="7.6717" height="3.84657" transform="matrix(0.86597 -0.500096 0.499904 0.866081 77.7188 115.939)" stroke="#25B7EB"/>
<path d="M104.31 135.575L103.965 131.333L110.926 127.313L114.427 129.733L104.31 135.575Z" stroke="#25B7EB"/>
<path d="M68.6207 61.0171L73.8961 66.8309L70.5525 68.7618L68.1566 61.2851L68.3887 61.1511L68.6207 61.0171Z" stroke="#25B7EB"/>
<rect x="0.682937" y="0.182992" width="7.6717" height="3.84657" transform="matrix(0.86597 -0.500096 0.499904 0.866081 102.984 101.05)" stroke="#25B7EB"/>
<mask id="path-19-inside-1_5849_31548" fill="white">
<path fill-rule="evenodd" clip-rule="evenodd" d="M59.4063 75.1855C63.4909 82.2622 72.5375 84.6869 79.6124 80.6011C86.6873 76.5154 89.1113 67.4665 85.0267 60.3898L59.4063 75.1855Z"/>
</mask>
<path d="M59.4062 75.1855L58.9063 74.3195L58.0404 74.8196L58.5403 75.6856L59.4062 75.1855ZM85.0267 60.3898L85.8926 59.8897L85.3927 59.0236L84.5268 59.5237L85.0267 60.3898ZM79.1125 79.735C72.516 83.5445 64.0809 81.2839 60.2722 74.6854L58.5403 75.6856C62.901 83.2405 72.5591 85.8292 80.1123 81.4672L79.1125 79.735ZM84.1607 60.8899C87.9693 67.4884 85.709 75.9256 79.1125 79.735L80.1123 81.4672C87.6656 77.1052 90.2533 67.4446 85.8926 59.8897L84.1607 60.8899ZM84.5268 59.5237L58.9063 74.3195L59.9062 76.0516L85.5266 61.2559L84.5268 59.5237Z" fill="#25B7EB" mask="url(#path-19-inside-1_5849_31548)"/>
<path d="M81.2584 80.0667C81.2873 80.0483 81.3171 80.0294 81.3473 80.0102L84.7454 85.8975L84.5048 86.0364L84.4997 86.0276L81.1126 80.1594C81.1445 80.1391 81.1776 80.118 81.2117 80.0964L81.2484 80.0731L81.2584 80.0667ZM81.7482 87.6167L81.7532 87.6255L81.4149 87.8208L78.0027 81.9092C78.0502 81.8862 78.0975 81.8631 78.1431 81.8409L78.1465 81.8393C78.1686 81.8285 78.1905 81.8178 78.2121 81.8073C78.2615 81.7832 78.3093 81.7599 78.3548 81.7377L81.7482 87.6167Z" fill="#25B7EB" stroke="#25B7EB"/>
<path d="M68.5819 58.4005C69.0073 59.1374 68.7548 60.0797 68.0182 60.5051C67.2815 60.9306 66.3394 60.6781 65.9141 59.9412C65.4887 59.2042 65.7412 58.2619 66.4778 57.8365C67.2145 57.4111 68.1566 57.6635 68.5819 58.4005Z" stroke="#25B7EB"/>
<path d="M69.7581 51.8869C68.6778 51.5974 67.5512 51.5235 66.4424 51.6695C65.3336 51.8155 64.2645 52.1785 63.296 52.7379C62.3274 53.2972 61.4786 54.0418 60.7978 54.9293C60.117 55.8167 59.6176 56.8296 59.3281 57.9102" stroke="#E8168D"/>
<path d="M71.6034 46.4047C69.7454 45.9067 67.8076 45.7797 65.9005 46.0308C63.9934 46.282 62.1545 46.9064 60.4887 47.8684C58.8228 48.8304 57.3628 50.1112 56.1918 51.6376C55.0208 53.164 54.1619 54.9062 53.6641 56.7646" stroke="#E8168D"/>
<path d="M75.5572 39.9958C72.5097 39.179 69.3312 38.9706 66.2032 39.3825C63.0752 39.7944 60.0589 40.8186 57.3266 42.3965C54.5943 43.9744 52.1995 46.0751 50.2788 48.5788C48.3582 51.0825 46.9494 53.94 46.1328 56.9883" stroke="#E8168D"/>
</svg>
