<svg xmlns="http://www.w3.org/2000/svg" width="120" height="120" fill="none"><circle cx="60.001" cy="60" r="11.853" stroke="#E8168D"/><path stroke="#25B7EB" d="M106.089 14.47a6.911 6.911 0 1 1-13.823 0 6.912 6.912 0 1 1 13.823 0Z"/><path stroke="#E8168D" d="M104.673 70.765a4.618 4.618 0 1 1-9.236 0 4.618 4.618 0 0 1 9.236 0Z"/><circle cx="57.884" cy="31.412" r="3.735" stroke="#25B7EB"/><circle cx="43.415" cy="83.647" r="3.735" stroke="#25B7EB"/><path stroke="#25B7EB" d="M25.97 46.412a5.676 5.676 0 1 1-11.353 0 5.676 5.676 0 0 1 11.353 0Z"/><circle cx="14.119" cy="96.352" r="7.971" stroke="#E8168D"/><path fill="#25B7EB" d="M9.202 89.454C4.172 80.796 1.29 70.734 1.29 60 1.29 27.576 27.576 1.29 60 1.29c12.043 0 23.239 3.626 32.555 9.846.195-.387.423-.754.68-1.098C83.721 3.696 72.292 0 60 0 26.863 0 0 26.863 0 60c0 11.05 2.987 21.403 8.198 30.294a8.515 8.515 0 0 1 1.004-.84Zm14.61-48.12C30.579 28.241 44.244 19.29 60 19.29c22.483 0 40.71 18.227 40.71 40.71 0 1.918-.133 3.806-.39 5.654.441.022.867.1 1.271.227.27-1.922.409-3.885.409-5.881 0-23.196-18.804-42-42-42-16.243 0-30.332 9.22-37.32 22.713.4.168.78.377 1.132.621Zm38.306-9.922c0 .224-.018.444-.051.66C76.567 33.128 88.004 45.228 88.004 60c0 15.466-12.538 28.004-28.004 28.004-4.525 0-8.8-1.074-12.582-2.98a4.225 4.225 0 0 1-.602 1.143c3.963 2 8.442 3.127 13.184 3.127C76.18 89.294 89.294 76.18 89.294 60c0-15.483-12.01-28.16-27.223-29.222.03.207.047.418.047.634ZM39.887 81.298c-5.653-5.34-9.181-12.907-9.181-21.298 0-13.997 9.817-25.701 22.941-28.603v.015c0 .44.067.865.192 1.264C41.337 35.483 31.996 46.651 31.996 60c0 8.014 3.366 15.241 8.762 20.346-.337.27-.63.592-.871.952Zm57.84-5.976C91.676 90.212 77.064 100.71 60 100.71c-22.483 0-40.71-18.227-40.71-40.71 0-2.534.232-5.014.675-7.42a6.172 6.172 0 0 1-1.275-.202A42.246 42.246 0 0 0 18 60c0 23.196 18.804 42 42 42 17.622 0 32.71-10.853 38.943-26.24a5.081 5.081 0 0 1-1.215-.438ZM118.71 60c0 32.424-26.285 58.71-58.71 58.71-15.595 0-29.77-6.081-40.283-16.001a8.476 8.476 0 0 1-1.046.788C29.431 113.724 43.983 120 60 120c33.137 0 60-26.863 60-60 0-15.518-5.891-29.66-15.559-40.312a7.468 7.468 0 0 1-.985.835C112.933 30.949 118.71 44.8 118.71 60Z"/><path stroke="#25B7EB" d="M9.202 89.454C4.172 80.796 1.29 70.734 1.29 60 1.29 27.576 27.576 1.29 60 1.29c12.043 0 23.239 3.626 32.555 9.846.195-.387.423-.754.68-1.098C83.721 3.696 72.292 0 60 0 26.863 0 0 26.863 0 60c0 11.05 2.987 21.403 8.198 30.294a8.515 8.515 0 0 1 1.004-.84Zm14.61-48.12C30.579 28.241 44.244 19.29 60 19.29c22.483 0 40.71 18.227 40.71 40.71 0 1.918-.133 3.806-.39 5.654.441.022.867.1 1.271.227.27-1.922.409-3.885.409-5.881 0-23.196-18.804-42-42-42-16.243 0-30.332 9.22-37.32 22.713.4.168.78.377 1.132.621Zm38.306-9.922c0 .224-.018.444-.051.66C76.567 33.128 88.004 45.228 88.004 60c0 15.466-12.538 28.004-28.004 28.004-4.525 0-8.8-1.074-12.582-2.98a4.225 4.225 0 0 1-.602 1.143c3.963 2 8.442 3.127 13.184 3.127C76.18 89.294 89.294 76.18 89.294 60c0-15.483-12.01-28.16-27.223-29.222.03.207.047.418.047.634ZM39.887 81.298c-5.653-5.34-9.181-12.907-9.181-21.298 0-13.997 9.817-25.701 22.941-28.603v.015c0 .44.067.865.192 1.264C41.337 35.483 31.996 46.651 31.996 60c0 8.014 3.366 15.241 8.762 20.346-.337.27-.63.592-.871.952Zm57.84-5.976C91.676 90.212 77.064 100.71 60 100.71c-22.483 0-40.71-18.227-40.71-40.71 0-2.534.232-5.014.675-7.42a6.172 6.172 0 0 1-1.275-.202A42.246 42.246 0 0 0 18 60c0 23.196 18.804 42 42 42 17.622 0 32.71-10.853 38.943-26.24a5.081 5.081 0 0 1-1.215-.438ZM118.71 60c0 32.424-26.285 58.71-58.71 58.71-15.595 0-29.77-6.081-40.283-16.001a8.476 8.476 0 0 1-1.046.788C29.431 113.724 43.983 120 60 120c33.137 0 60-26.863 60-60 0-15.518-5.891-29.66-15.559-40.312a7.468 7.468 0 0 1-.985.835C112.933 30.949 118.71 44.8 118.71 60Z"/></svg>